<svg t="1597900617636" class="icon" viewBox="0 0 1024 1024" version="1.1" xmlns="http://www.w3.org/2000/svg" p-id="2313" width="200" height="200"><path d="M512.2 917.4L266.7 676.8c-59.7-63-92.6-145.5-92.6-232.4 0-45.6 8.9-89.9 26.6-131.5 17-40.2 41.4-76.4 72.4-107.4s67.2-55.4 107.4-72.4c41.7-17.6 85.9-26.6 131.5-26.6 45.6 0 89.9 8.9 131.5 26.6 40.2 17 76.4 41.4 107.4 72.4s55.4 67.2 72.4 107.4c17.6 41.7 26.6 85.9 26.6 131.5 0 89.5-34.6 173.8-97.5 237.5l-0.7 0.7-7.1 7-232.4 227.8z m-203-249.3l0.3 0.3L512.2 867l207.5-203.4 0.2-0.2 7.1-6.9c56.1-56.8 87-132.2 87-212.1 0-166.5-135.4-301.9-301.9-301.9-166.5 0-301.9 135.4-301.9 301.9 0 77.5 29.3 151.1 82.5 207.4l16.5 16.3z" p-id="2314"></path><path d="M512 590.7c-80.6 0-146.2-65.6-146.2-146.2S431.4 298.3 512 298.3s146.2 65.6 146.2 146.2S592.6 590.7 512 590.7z m0-256.4c-60.8 0-110.2 49.4-110.2 110.2S451.2 554.7 512 554.7c60.8 0 110.2-49.4 110.2-110.2S572.8 334.3 512 334.3z" p-id="2315"></path></svg>