<svg height="512" viewBox="0 0 32 32" width="512" xmlns="http://www.w3.org/2000/svg"><g id="Layer_13" data-name="Layer 13"><path d="m18 24h-4a1 1 0 0 0 0 2h4a1 1 0 0 0 0-2z"/><path d="m24 6h-22a1 1 0 0 0 -1 1v17a1 1 0 0 0 1 1h2a1 1 0 0 0 0-2h-1v-15h21a5.0059 5.0059 0 0 1 5 5v1h-1v-1a1 1 0 0 0 -2 0v2a1 1 0 0 0 1 1h2v8h-1a1 1 0 0 0 0 2h2a1 1 0 0 0 1-1v-12a7.0081 7.0081 0 0 0 -7-7z"/><path d="m9 20a3 3 0 1 0 3 3 3.0033 3.0033 0 0 0 -3-3zm0 4a1 1 0 1 1 1-1 1.0009 1.0009 0 0 1 -1 1z"/><path d="m23 20a3 3 0 1 0 3 3 3.0033 3.0033 0 0 0 -3-3zm0 4a1 1 0 1 1 1-1 1.0009 1.0009 0 0 1 -1 1z"/><path d="m24 18a1 1 0 0 0 1-1v-5a3.0033 3.0033 0 0 0 -3-3h-4a1 1 0 0 0 -1 1v7a1 1 0 0 0 1 1zm-5-7h3a1.0009 1.0009 0 0 1 1 1v4h-4z"/></g></svg>