<?xml version="1.0" standalone="no"?><!DOCTYPE svg PUBLIC "-//W3C//DTD SVG 1.1//EN" "http://www.w3.org/Graphics/SVG/1.1/DTD/svg11.dtd"><svg t="1585185700020" class="icon" viewBox="0 0 1024 1024" version="1.1" xmlns="http://www.w3.org/2000/svg" p-id="1512" xmlns:xlink="http://www.w3.org/1999/xlink" width="200" height="200"><defs><style type="text/css"></style></defs><path d="M588.8 153.6a51.2 51.2 0 0 1 51.2 51.2v51.2h204.8v51.2h-51.2v512a51.2 51.2 0 0 1-51.2 51.2h-460.8a51.2 51.2 0 0 1-51.2-51.2V307.2h-51.2V256h204.8V204.8a51.2 51.2 0 0 1 51.2-51.2h153.6z m153.6 153.6h-460.8v512h460.8V307.2z m-307.2 153.6v256h-51.2V460.8h51.2z m204.8 0v256h-51.2V460.8h51.2z m-51.2-256h-153.6v51.2h153.6V204.8z"  p-id="1513"></path></svg>