<?xml version="1.0" standalone="no"?><!DOCTYPE svg PUBLIC "-//W3C//DTD SVG 1.1//EN" "http://www.w3.org/Graphics/SVG/1.1/DTD/svg11.dtd"><svg t="1585185704724" class="icon" viewBox="0 0 1024 1024" version="1.1" xmlns="http://www.w3.org/2000/svg" p-id="1631" xmlns:xlink="http://www.w3.org/1999/xlink" width="200" height="200"><defs><style type="text/css"></style></defs><path d="M844.8 819.2a25.6 25.6 0 1 1 0 51.2h-307.2a25.6 25.6 0 1 1 0-51.2h307.2zM565.248 82.6368l167.7824 117.4528a51.2 51.2 0 0 1 12.544 71.3216L375.552 799.744l-223.4368 56.1152-28.16-232.2944L493.8752 95.232a51.2 51.2 0 0 1 71.3216-12.5952zM195.584 610.4576l-18.432 26.4704 18.7904 155.1872 148.6336-37.2736 18.7904-26.9312-167.7824-117.4528z m340.2752-485.888l-310.8864 443.904 167.7312 117.504 310.9376-443.9552-167.7824-117.4528z"  p-id="1632"></path></svg>