<?xml version="1.0" standalone="no"?><!DOCTYPE svg PUBLIC "-//W3C//DTD SVG 1.1//EN" "http://www.w3.org/Graphics/SVG/1.1/DTD/svg11.dtd"><svg t="1587456253641" class="icon" viewBox="0 0 1024 1024" version="1.1" xmlns="http://www.w3.org/2000/svg" p-id="7556" xmlns:xlink="http://www.w3.org/1999/xlink" width="200" height="200"><defs><style type="text/css"></style></defs><path d="M698.492 736.715c-8.793 0-15.855-7.044-17.62-14.106l-72.28-578.048c-7.027-51.112-51.112-91.63-100.423-91.63-52.895 0-93.414 38.752-100.476 91.63l-72.245 578.048c-1.765 8.81-10.593 15.836-19.385 14.106-8.828-1.748-15.854-8.81-15.854-19.385l72.245-578.066c7.062-68.732 65.2-121.626 135.732-121.626 66.967 0 125.14 51.129 135.698 121.626l72.28 578.066c1.766 8.81-5.278 17.62-15.854 19.385h-1.818z m-188.558 144.49c-114.546 0-207.96-72.263-207.96-160.38 0-88.099 93.414-160.38 207.96-160.38s207.925 72.281 207.925 160.38c0 88.117-93.378 160.38-207.925 160.38z m0-287.25c-95.179 0-172.72 56.39-172.72 126.906 0 70.514 77.559 126.905 172.72 126.905s172.686-56.39 172.686-126.905-77.524-126.906-172.686-126.906z m400.031 287.25c-8.792 0-15.854-7.027-17.62-14.107L820.1 289.05c-7.062-51.129-51.129-91.63-100.44-91.63-10.593 0-17.62-7.027-17.62-17.62 0-10.575 7.027-17.62 17.62-17.62 66.966 0 125.105 51.112 135.698 121.61l72.28 578.047c1.766 8.828-5.279 17.638-15.854 19.403l-1.819-0.035z m-810.69 0H97.51c-8.81-1.766-15.855-8.81-15.855-19.403l72.28-578.048c8.793-84.586 95.18-84.586 135.733-84.586 10.558 0 17.62 7.044 17.62 17.62 0 10.593-7.062 17.62-17.62 17.62-70.514 0-95.196 14.106-100.475 54.642L116.93 867.098c-1.8 8.81-8.827 14.107-17.655 14.107zM263.168 999.3c-100.423 0-181.513-61.67-181.513-137.463 0-75.776 81.09-137.463 181.513-137.463 10.593 0 17.62 7.044 17.62 17.638s-7.027 17.62-17.62 17.62c-81.055 0-146.273 45.832-146.273 102.205 0 56.39 65.218 102.224 146.273 102.224 33.474 0 65.2-7.045 89.9-21.134 19.386-10.593 35.24-24.664 44.067-40.536 5.28-8.827 15.82-10.593 24.647-5.296 8.792 5.296 10.593 15.854 7.027 22.916-12.341 21.133-33.474 38.753-58.139 52.86-29.943 17.62-66.948 26.43-107.502 26.43z m482.904 7.045c-38.753 0-75.793-8.81-107.52-26.43-24.646-14.124-44.067-31.744-58.174-52.877-5.278-8.81-1.765-19.403 7.063-22.899 8.792-5.314 19.385-1.783 24.646 5.279 10.593 15.837 24.647 29.943 44.067 40.536 26.413 14.107 58.139 21.151 89.865 21.151 81.073 0 146.273-45.85 146.273-102.223 0-56.391-65.2-102.206-146.273-102.206-10.557 0-17.62-7.045-17.62-17.62 0-8.81 7.063-17.638 17.62-17.638 100.44 0 181.513 61.688 181.513 137.464 0.053 75.793-81.02 137.463-181.46 137.463z" p-id="7557"></path></svg>