<?xml version="1.0" standalone="no"?><!DOCTYPE svg PUBLIC "-//W3C//DTD SVG 1.1//EN" "http://www.w3.org/Graphics/SVG/1.1/DTD/svg11.dtd"><svg t="1587534016151" class="icon" viewBox="0 0 1024 1024" version="1.1" xmlns="http://www.w3.org/2000/svg" p-id="2675" xmlns:xlink="http://www.w3.org/1999/xlink" width="200" height="200"><defs><style type="text/css"></style></defs><path d="M88.32415886 741.11205516a47.1327001 47.1327001 0 0 1 16.02511804-29.12800867l138.57013826-138.57013828a47.1327001 47.1327001 0 1 1 66.40997444 66.40997445l-60.80118313 60.80118312H512a47.1327001 47.1327001 0 0 1 0 94.26540017h-263.47179353l60.80118313 60.80118313a47.1798328 47.1798328 0 0 1-66.45710713 66.92843413l-141.39810028-141.39810029a47.03843469 47.03843469 0 0 1-13.15002333-40.10992776z m800.78457458 195.17651108h-188.53080035a47.1327001 47.1327001 0 0 1 0-94.26540018h141.39810025v-445.40401589l-329.92890064-205.96989941-329.92890066 206.44122642v115.00378822a47.1327001 47.1327001 0 0 1-94.26540017 0v-141.39810029a47.03843469 47.03843469 0 0 1 22.15236904-40.06279507l377.06160074-235.66350046a47.08556739 47.08556739 0 0 1 49.96066209 0l377.06160075 235.66350046a47.03843469 47.03843469 0 0 1 22.15236906 40.06279507v518.45970103a47.1327001 47.1327001 0 0 1-47.13270011 47.1327001z" p-id="2676"></path></svg>