<?xml version="1.0" standalone="no"?><!DOCTYPE svg PUBLIC "-//W3C//DTD SVG 1.1//EN" "http://www.w3.org/Graphics/SVG/1.1/DTD/svg11.dtd"><svg t="1585790865482" class="icon" viewBox="0 0 1024 1024" version="1.1" xmlns="http://www.w3.org/2000/svg" p-id="1158" xmlns:xlink="http://www.w3.org/1999/xlink" width="200" height="200"><defs><style type="text/css"></style></defs><path d="M0 0m146.285714 0l731.428572 0q146.285714 0 146.285714 146.285714l0 731.428572q0 146.285714-146.285714 146.285714l-731.428572 0q-146.285714 0-146.285714-146.285714l0-731.428572q0-146.285714 146.285714-146.285714Z" fill="#5D7092" p-id="1159"></path><path d="M690.322286 269.750857l-312.356572 146.797714v94.281143l-54.491428-24.210285v-94.281143l312.32-146.797715-104.886857-46.701714c-14.043429-6.253714-37.010286-6.253714-51.053715 0L221.44 313.709714c-20.589714 9.142857-37.302857 35.108571-37.266286 57.6l0.621715 269.275429c0.073143 22.747429 17.261714 48.64 38.144 57.636571l257.645714 110.153143c13.641143 5.851429 35.84 5.851429 49.444571 0l257.792-110.153143c20.955429-8.96 38.034286-34.889143 38.144-57.636571l0.621715-269.275429c0.036571-22.528-16.749714-48.420571-37.302858-57.6l-98.962285-43.958857z m77.860571 215.552l-15.140571 7.021714-0.292572 106.422858c0 4.608-4.169143 10.130286-9.142857 12.324571l-22.674286 9.801143c-4.973714 2.121143-8.96 0.182857-8.96-4.461714l-0.073142-104.996572-14.628572 6.765714c-6.875429 3.181714-11.227429-1.828571-7.753143-9.033142l34.998857-73.874286c3.510857-7.424 12.434286-11.702857 15.908572-7.68l35.949714 40.96c3.584 4.059429-0.987429 13.348571-8.192 16.749714z m-147.821714 170.825143c0.073143 4.461714-3.693714 9.728-8.411429 11.702857l-20.992 9.069714c-4.608 2.011429-8.338286 0.036571-8.411428-4.388571l-1.243429-100.571429-13.568 6.253715c-6.4 2.962286-10.459429-1.865143-7.314286-8.777143l31.780572-70.217143c3.181714-7.058286 11.410286-11.008 14.738286-7.131429l33.865142 39.716572c3.401143 3.949714-0.731429 12.8-7.387428 15.872l-13.897143 6.582857 0.841143 101.888z m172.836571-29.184c0 2.340571-2.121143 5.12-4.717714 6.217143l-239.762286 100.681143c-2.267429 0.950857-4.059429-0.036571-4.132571-2.194286l-0.182857-11.702857c-0.073143-2.157714 1.755429-4.754286 4.022857-5.668572l240.201143-102.326857c2.56-1.060571 4.644571-0.036571 4.644571 2.267429l-0.073143 12.726857z" fill="#FFFFFF" p-id="1160"></path></svg>