<?xml version="1.0" standalone="no"?><!DOCTYPE svg PUBLIC "-//W3C//DTD SVG 1.1//EN" "http://www.w3.org/Graphics/SVG/1.1/DTD/svg11.dtd"><svg t="1587533990010" class="icon" viewBox="0 0 1113 1024" version="1.1" xmlns="http://www.w3.org/2000/svg" p-id="1917" xmlns:xlink="http://www.w3.org/1999/xlink" width="217.3828125" height="200"><defs><style type="text/css"></style></defs><path d="M903.944733 0.004798H658.067781a202.990579 202.990579 0 0 0-195.609104 143.938774H305.89758a167.0797 167.0797 0 0 0-145.562699 87.728838L18.46292 505.635876a156.930171 156.930171 0 0 0-18.453689 75.549403v175.457675a123.750438 123.750438 0 0 0 123.528994 123.049198h41.594615a144.344755 144.344755 0 0 0 288.652603 0h205.500281a144.344755 144.344755 0 0 0 288.652603 0h41.594615a123.750438 123.750438 0 0 0 123.528994-123.049198V204.656209A212.032886 212.032886 0 0 0 903.944733 0.004798zM534.538786 204.730024a123.750438 123.750438 0 0 1 123.528995-123.086106h245.840044a123.750438 123.750438 0 0 1 123.528994 123.086106v163.27824a123.750438 123.750438 0 0 1-123.528994 123.049198H658.067781a123.750438 123.750438 0 0 1-123.528995-123.049198zM308.259652 940.700048a60.934081 60.934081 0 1 1 61.155525-60.934081 59.716138 59.716138 0 0 1-61.155525 60.897174z m492.93494 0a60.934081 60.934081 0 1 1 0-121.794347 60.454285 60.454285 0 0 1 61.155526 60.934081 59.716138 59.716138 0 0 1-61.155526 60.823359z m184.53689-142.573201h-67.28215a146.706827 146.706827 0 0 0-117.439276-60.934081 143.237534 143.237534 0 0 0-117.439277 60.934081h-258.093294a146.706827 146.706827 0 0 0-117.439277-60.934081 143.237534 143.237534 0 0 0-117.439277 60.934081H123.316781a41.926781 41.926781 0 0 1-41.594615-41.446986v-175.457675a89.205133 89.205133 0 0 1 8.562512-36.538304L232.156639 270.535879a85.182228 85.182228 0 0 1 73.408775-45.063909h145.562698v143.938774A206.34915 206.34915 0 0 0 656.960559 573.914526h245.840045a206.312243 206.312243 0 0 0 123.528994-41.410079v225.393358a39.859968 39.859968 0 0 1-40.450486 40.192134z" p-id="1918"></path><path d="M348.599416 388.713303H266.62813a41.446985 41.446985 0 1 0 0 82.857063h81.971286a41.963689 41.963689 0 0 0 41.594615-41.446985 41.151726 41.151726 0 0 0-41.594615-41.410078z" p-id="1919"></path></svg>