<?xml version="1.0" standalone="no"?><!DOCTYPE svg PUBLIC "-//W3C//DTD SVG 1.1//EN" "http://www.w3.org/Graphics/SVG/1.1/DTD/svg11.dtd"><svg t="1587458705158" class="icon" viewBox="0 0 1043 1024" version="1.1" xmlns="http://www.w3.org/2000/svg" p-id="10048" xmlns:xlink="http://www.w3.org/1999/xlink" width="203.7109375" height="200"><defs><style type="text/css"></style></defs><path d="M387.550852 86.489109a114.309636 114.309636 0 0 0-221.705053 0l-165.013911 0.259113v56.077455l164.918448-0.259113a114.309636 114.309636 0 0 0 221.705054 0h654.000586V86.489109z m-110.859345 86.434559a58.423107 58.423107 0 0 1 0-116.737113 58.423107 58.423107 0 0 1 0 116.737113z m404.393181 229.178411a114.555111 114.555111 0 0 0-110.804795 86.434559H0v56.077455h570.225342a114.295999 114.295999 0 0 0 221.664141 0h248.625505v-56.077455H791.889483a114.555111 114.555111 0 0 0-110.804795-86.434559z m0 172.814568a58.314007 58.314007 0 0 1-58.314007-57.373018l-0.095462-0.940989 0.095462-0.940988a58.368557 58.368557 0 1 1 58.314007 59.268633z m114.555111-58.314007c0 2.727503-0.245475 5.386818-0.450038 8.018858 0.150013-2.727503 0.354575-5.332268 0.354576-8.018858s-0.204563-5.386818-0.354576-8.182508a73.301634 73.301634 0 0 1 0.436401 8.168871zM119.028216 794.876099a114.555111 114.555111 0 1 0 110.859345 142.512013h813.73678v-56.077454H229.887561a114.636937 114.636937 0 0 0-110.859345-86.434559z m0 172.85548a58.464019 58.464019 0 0 1 0-116.832576 58.464019 58.464019 0 0 1 0 116.832576z" p-id="10049"></path></svg>