<?xml version="1.0" standalone="no"?><!DOCTYPE svg PUBLIC "-//W3C//DTD SVG 1.1//EN" "http://www.w3.org/Graphics/SVG/1.1/DTD/svg11.dtd"><svg t="1585185655808" class="icon" viewBox="0 0 1024 1024" version="1.1" xmlns="http://www.w3.org/2000/svg" p-id="1035" xmlns:xlink="http://www.w3.org/1999/xlink" width="200" height="200"><defs><style type="text/css"></style></defs><path d="M178.4 494.512L8.96 800.176h122.336l169.44-305.664h-122.352z m263.44 0l-130.688 235.76 37.008 69.92 46.56-0.016 169.44-305.664h-122.32z" fill="#1677FF" opacity=".3" p-id="1036"></path><path d="M300.592 494.512l169.44 305.664H347.68L178.24 494.512h122.336zM555.84 231.408l180.304 0.032c155.232 0 281.408 124.464 284.16 279.04l0.048 5.168c0 155.232-124.48 281.408-279.04 284.16l-8.32 0.048 0.16 0.32h-122.32l-169.44-305.664h122.32l109.968 198.352h62.464c97.872 0 177.216-79.344 177.216-177.216 0-96.368-76.912-174.784-172.72-177.168l-4.496-0.064h-105.52l-0.016-0.032H613.76l-57.92-106.976z" fill="#1677FF" p-id="1037"></path></svg>