<?xml version="1.0" standalone="no"?><!DOCTYPE svg PUBLIC "-//W3C//DTD SVG 1.1//EN" "http://www.w3.org/Graphics/SVG/1.1/DTD/svg11.dtd"><svg t="1587456079333" class="icon" viewBox="0 0 1024 1024" version="1.1" xmlns="http://www.w3.org/2000/svg" p-id="3088" xmlns:xlink="http://www.w3.org/1999/xlink" width="200" height="200"><defs><style type="text/css"></style></defs><path d="M516.3263 1020.056979c-5.145467 0-10.334021-1.623302-15.009532-4.692545L106.224079 755.843522c-10.230811-6.720671-17.405406-19.96361-17.446489-32.20451l-1.402854-422.118665c-0.025051-7.443141 2.6053-14.195877 7.405063-19.011674 4.499152-4.514183 10.516392-6.999238 16.944468-6.999237 5.172522 0 10.387129 1.644345 15.081679 4.75367l396.60677 262.827638c10.199748 6.759751 17.323239 20.025736 17.323238 32.260624v418.7438c-0.001002 14.800106-10.494347 25.961811-24.409654 25.961811zM128.9954 722.845397l371.658019 244.1276V576.263223a4.017172 4.017172 0 0 0-0.143291-0.266542L127.547454 328.837915l1.309665 393.749959c0.041084 0.086175 0.089181 0.175357 0.138281 0.257523z" p-id="3089"></path><path d="M520.166111 1016.578904c-3.818768 0-7.578416-0.897826-11.043464-2.71352-8.236755-4.319787-13.154759-12.974392-13.154759-23.152095v-418.741796c0-12.229878 7.116476-25.495863 17.306204-32.25862L910.039183 276.343132c9.219755-6.121452 21.658056-3.60834 27.780511 5.61442 6.12045 9.220757 3.60834 21.658056-5.614421 27.779509L536.197723 572.602777a3.654434 3.654434 0 0 0-0.1473 0.276563v389.63659l361.622605-249.99754c0.120245-0.189385 0.248506-0.430876 0.337687-0.636294l2.019107-238.719598c0.09319-11.009395 9.047404-19.871422 20.035757-19.871423l0.173352 0.001003c11.068515 0.094192 19.964612 9.141596 19.87042 20.209108l-2.025119 239.506199c-0.100204 12.022456-7.077397 25.196254-16.970521 32.034163L535.647603 1011.520615c-4.850868 3.353822-10.220791 5.058289-15.481492 5.058289z" p-id="3090"></path><path d="M114.878684 315.345469c-6.253721 0-12.416257-2.91994-16.327213-8.397081-6.431082-9.008325-4.342834-21.524785 4.665491-27.955867L471.209525 16.256068c15.787114-11.272931 40.934268-16.74406 58.447893-5.388962L928.856461 269.528269c9.288895 6.018242 11.939287 18.427485 5.920042 27.71638-6.018242 9.289897-18.427485 11.940289-27.71638 5.921044L508.368112 44.832197c-2.275629-0.501019-8.761823 0.397809-13.86821 4.044226L126.507339 311.612877a19.952587 19.952587 0 0 1-11.628655 3.732592zM358.417085 589.270682a19.940563 19.940563 0 0 1-10.917208-3.24961L211.478185 497.449902c-9.275869-6.039285-11.898203-18.45454-5.858918-27.729406s18.455542-11.898203 27.729406-5.857916l136.021693 88.572172c9.275869 6.039285 11.898203 18.45454 5.858918 27.729406-3.840813 5.897998-10.261874 9.106524-16.812199 9.106524z" p-id="3091"></path></svg>