<?xml version="1.0" standalone="no"?><!DOCTYPE svg PUBLIC "-//W3C//DTD SVG 1.1//EN" "http://www.w3.org/Graphics/SVG/1.1/DTD/svg11.dtd"><svg t="1585185693292" class="icon" viewBox="0 0 1024 1024" version="1.1" xmlns="http://www.w3.org/2000/svg" p-id="1393" xmlns:xlink="http://www.w3.org/1999/xlink" width="200" height="200"><defs><style type="text/css"></style></defs><path d="M596.3264 102.4c9.216 0 17.1008 5.632 19.8144 13.6192l0.8192 3.584 15.9744 108.544c20.5824 8.192 39.7824 18.4832 57.856 30.6688l13.312 9.472 104.8576-40.96a21.9136 21.9136 0 0 1 23.1424 5.4784l2.56 3.5328 84.224 141.7216a20.4288 20.4288 0 0 1-2.048 23.296l-3.072 2.9184-88.7808 67.584c1.6384 13.1072 2.9184 26.2144 2.9184 40.1408 0 9.2672-0.512 18.2272-1.4336 26.9824l-1.536 13.1584 88.8832 67.584a20.1216 20.1216 0 0 1 6.7584 22.272l-1.6896 3.9424-84.224 141.7216a20.6336 20.6336 0 0 1-21.504 10.1376l-4.1984-1.1264-104.8576-40.96c-17.5104 12.8-36.096 24.2688-56.0128 33.5872l-15.1552 6.5536-15.9744 108.544a20.0704 20.0704 0 0 1-16.7936 16.896l-3.84 0.3072h-168.448a20.6848 20.6848 0 0 1-19.8144-13.6192l-0.8192-3.584-16.0256-108.544a305.8176 305.8176 0 0 1-57.8048-30.6688l-13.312-9.472-104.8576 40.96a21.9136 21.9136 0 0 1-23.1936-5.4784l-2.56-3.5328-84.1728-141.7216a20.4288 20.4288 0 0 1 1.9968-23.296l3.072-2.9184 88.832-67.584A316.1088 316.1088 0 0 1 196.2496 512c0-9.0112 0.5632-18.0224 1.4848-26.9312l1.536-13.2096-88.8832-67.584a19.9168 19.9168 0 0 1-6.912-22.272l1.8432-3.9424 84.224-141.7216a20.6336 20.6336 0 0 1 21.504-10.1376l4.1984 1.1264 104.8064 40.96c17.5616-12.8 36.1472-24.2688 56.0128-33.5872l15.1552-6.5536 16.0256-108.544a20.0704 20.0704 0 0 1 16.7936-16.896L427.8784 102.4h168.448z m-21.1968 45.5168H449.024l-16.64 112.7936-24.32 9.728c-20.5824 8.192-40.7552 19.712-61.2352 34.6112l-20.1216 14.6944-108.6464-42.4448-62.1056 104.4992L247.7056 451.584l-3.328 26.112c-1.7408 13.312-2.56 24.2688-2.56 34.304 0 10.0352 0.8192 20.992 2.56 34.304l3.328 26.112-91.648 69.7856 62.0544 104.448 108.9536-42.496 20.2752 15.104c19.2 14.336 39.3216 25.7536 60.7744 34.304l24.32 9.728 16.64 112.7936h126.0544l16.64-112.7936 24.32-9.728c20.5824-8.192 40.7552-19.712 61.184-34.6112l20.1728-14.6944 108.5952 42.4448 62.1056-104.4992-91.648-69.7856 4.4544-35.7376c1.024-9.216 1.4336-16.9472 1.4336-24.6784 0-7.68-0.4608-15.5136-1.4336-24.6784l-4.5056-35.7376 91.6992-69.7856-62.0544-104.448-109.0048 42.496-20.224-15.104a264.2944 264.2944 0 0 0-60.7744-34.304l-24.32-9.728-16.64-112.7936zM512.1024 368.64c81.2544 0 147.3536 64.3072 147.3536 143.36 0 79.0528-66.048 143.36-147.3536 143.36-81.2544 0-147.4048-64.3072-147.4048-143.36 0-79.0528 66.1504-143.36 147.4048-143.36z m0 45.5168c-56.4224 0-101.888 44.2368-101.888 97.8432 0 53.6064 45.4656 97.8432 101.888 97.8432 56.4224 0 101.888-44.2368 101.888-97.8432 0-53.6064-45.4656-97.8432-101.888-97.8432z"  p-id="1394"></path></svg>