<?xml version="1.0" standalone="no"?><!DOCTYPE svg PUBLIC "-//W3C//DTD SVG 1.1//EN" "http://www.w3.org/Graphics/SVG/1.1/DTD/svg11.dtd"><svg t="1585790871747" class="icon" viewBox="0 0 1024 1024" version="1.1" xmlns="http://www.w3.org/2000/svg" p-id="1283" xmlns:xlink="http://www.w3.org/1999/xlink" width="200" height="200"><defs><style type="text/css"></style></defs><path d="M0 0m146.285714 0l731.428572 0q146.285714 0 146.285714 146.285714l0 731.428572q0 146.285714-146.285714 146.285714l-731.428572 0q-146.285714 0-146.285714-146.285714l0-731.428572q0-146.285714 146.285714-146.285714Z" fill="#30BF78" p-id="1284"></path><path d="M808.228571 256a32.914286 32.914286 0 0 1 32.914286 32.914286l-0.036571 7.716571H841.142857v406.345143h-0.036571l0.036571 7.387429a32.914286 32.914286 0 0 1-32.804571 32.950857l-73.435429 0.292571h-43.483428A81.737143 81.737143 0 0 1 612.205714 804.571429a81.737143 81.737143 0 0 1-79.177143-60.891429h-86.966857A81.737143 81.737143 0 0 1 366.884571 804.571429a81.737143 81.737143 0 0 1-79.213714-60.928H244.224a61.184 61.184 0 0 1-61.184-56.210286L182.857143 682.678857v-182.674286l113.334857-157.842285a61.44 61.44 0 0 1 44.836571-25.344l5.412572-0.182857 41.508571 0.182857 0.219429-4.864a61.147429 61.147429 0 0 1 56.32-55.771429L449.28 256H808.228571zM366.848 682.678857c-15.286857 0-28.598857 8.301714-35.620571 20.626286l-2.267429 4.644571 0.365714-0.841143a40.155429 40.155429 0 0 0-3.364571 16.201143l0.219428 4.278857 0.658286 4.169143 0.987429 3.730286 1.462857 4.022857 0.512 1.024c6.509714 13.824 20.662857 23.405714 37.046857 23.405714 15.250286 0 28.562286-8.338286 35.620571-20.662857l1.901715-3.803428 1.462857-3.949715 0.512-1.609142a40.448 40.448 0 0 0 0.475428-19.163429l-0.914285-3.474286-1.462857-3.84-1.609143-3.401143a40.923429 40.923429 0 0 0-35.986286-21.357714z m245.321143 0c-15.250286 0-28.562286 8.301714-35.584 20.626286l-1.901714 3.803428a40.155429 40.155429 0 0 0-3.401143 16.201143l0.256 4.278857 0.658285 4.169143 0.987429 3.730286 0.804571 2.304 1.609143 3.657143c6.729143 13.348571 20.589714 22.491429 36.571429 22.491428 16.713143 0 31.049143-9.947429 37.412571-24.137142l1.609143-4.278858 0.475429-1.609142a40.448 40.448 0 0 0 0.512-19.163429l-0.731429-2.816-0.914286-2.742857-0.950857-2.340572-0.438857-0.987428a40.923429 40.923429 0 0 0-36.937143-23.186286z m-207.798857 24.429714l0.073143 0.329143 0.292571 0.512-0.365714-0.841143z m350.500571-186.989714l-3.547428 0.256h-49.993143l-3.547429 0.182857c-11.666286 1.170286-20.845714 8.301714-20.845714 20.004572 0 9.910857 7.168 18.358857 19.931428 19.931428l4.461715 0.256h49.993143l3.547428-0.292571c11.666286-1.828571 20.845714-11.812571 20.845714-21.723429 0-9.910857-9.179429-18.505143-20.845714-18.614857z m-375.222857 19.126857l-2.194286 0.365715a61.805714 61.805714 0 0 1 2.194286-0.365715z m9.362286-2.669714l-0.841143 0.292571 0.841143-0.292571z m5.851428-2.523429l-2.011428 0.950858 1.974857-0.950858z m4.425143-2.450285l-1.938286 1.133714 1.938286-1.097143z m4.096-2.706286l-1.28 0.914286 1.28-0.914286z m4.608-3.657143l-2.194286 1.828572c0.731429-0.585143 1.462857-1.170286 2.194286-1.828572z m3.693714-3.510857l-2.011428 1.974857c0.694857-0.621714 1.353143-1.28 2.011428-1.974857z m3.291429-3.657143l-1.645714 1.938286 1.609143-1.938286z m3.072-4.059428l-1.462857 2.011428 1.462857-2.011428z m2.742857-4.388572l-1.206857 2.011429a60.708571 60.708571 0 0 0 1.206857-2.011429z m2.267429-4.315428l-0.731429 1.536 0.731429-1.536z m2.121143-5.083429l-0.731429 1.828571 0.731429-1.828571z m-78.994286-142.994286a20.48 20.48 0 0 0-14.628572 6.034286l-2.121142 2.486857-96.365715 134.034286h134.4c10.24 0 18.761143-7.497143 20.224-17.298286l0.219429-2.998857V357.449143L346.221714 357.302857z m79.725714 140.873143l0.731429-2.56a60.233143 60.233143 0 0 0-0.731429 2.56z m332.873143-99.84l-3.254857 0.182857h-204.909714l-2.925715 0.182857a19.090286 19.090286 0 0 0-17.298285 20.041143c0 9.874286 5.961143 18.322286 16.530285 19.931429l3.693715 0.256h204.909714l2.925714-0.292572c9.654857-1.828571 17.298286-11.849143 17.298286-21.76 0-9.801143-7.460571-18.285714-16.969143-18.578285z" fill="#FFFFFF" p-id="1285"></path></svg>