<svg id="Capa_1" enable-background="new 0 0 512 512" height="512" viewBox="0 0 512 512" width="512" xmlns="http://www.w3.org/2000/svg"><path d="m512 276.731-43.599-85.657h-91.068v-105.116h-377.333v92.786h27v196.392h47.663c1.98 28.402 25.704 50.908 54.6 50.908s52.62-22.506 54.6-50.908h169.537c1.98 28.402 25.704 50.908 54.6 50.908s52.62-22.506 54.6-50.908h49.4zm-61.991-55.656 20.87 41.002h-93.545v-41.002zm-420.009-105.117h317.333v32.786h-317.333zm99.263 280.084c-13.647 0-24.75-11.103-24.75-24.75s11.103-24.75 24.75-24.75 24.75 11.103 24.75 24.75-11.103 24.75-24.75 24.75zm218.07-50.907h-169.985c-9.296-17.02-27.364-28.592-48.085-28.592s-38.789 11.572-48.085 28.592h-24.178v-166.392h35v83.196h30v-83.196h33.667v83.196h30v-83.196h33.666v83.196h30v-83.196h33.667v83.196h30v-83.196h34.333zm60.667 50.907c-13.647 0-24.75-11.103-24.75-24.75s11.103-24.75 24.75-24.75 24.75 11.103 24.75 24.75-11.103 24.75-24.75 24.75zm48.085-50.907c-9.296-17.02-27.364-28.592-48.085-28.592-11.355 0-21.912 3.476-30.667 9.418v-33.884h104.667v53.058z"/></svg>