<?xml version="1.0" standalone="no"?><!DOCTYPE svg PUBLIC "-//W3C//DTD SVG 1.1//EN" "http://www.w3.org/Graphics/SVG/1.1/DTD/svg11.dtd"><svg t="1585790858026" class="icon" viewBox="0 0 1024 1024" version="1.1" xmlns="http://www.w3.org/2000/svg" p-id="1034" xmlns:xlink="http://www.w3.org/1999/xlink" width="200" height="200"><defs><style type="text/css"></style></defs><path d="M968.231822 855.608889l15.928889 18.204444c-12.515556 7.964444-25.031111 25.031111-36.408889 36.408889-2.275556 2.275556-7.964444 1.137778-7.964444 1.137778-7.964444 6.826667-12.515556 13.653333-17.066667 20.48-1.137778 2.275556-5.688889 1.137778-6.826667 1.137778h-1.137777l-4.551111 6.826666c-1.137778 1.137778-3.413333 0-4.551112 0l-1.137777-1.137777-4.551111 6.826666c-2.275556 2.275556-6.826667-1.137778-7.964445 1.137778-3.413333 1.137778-5.688889 6.826667-6.826667 9.102222-1.137778 2.275556-4.551111 0-5.688888-1.137777-4.551111 2.275556-13.653333 10.24-20.48 14.791111l-2.275556 1.137777-11.377778 2.275556-3.413333 4.551111c-1.137778 2.275556-4.551111-3.413333-5.688889-1.137778-5.688889 2.275556-9.102222 6.826667-14.791111 10.24-4.551111 0-10.24-1.137778-13.653333 0-3.413333 1.137778-5.688889 6.826667-9.102223 7.964445-3.413333 1.137778-6.826667-1.137778-10.24 0-10.24 4.551111-18.204444 11.377778-26.168889 10.24h-1.137777l1.456355-1.956978-4.528355 1.831822c-26.783289 9.853156-54.385778 6.382933-79.985778 14.916267-5.688889-1.137778 3.413333-4.551111 1.137778-5.688889-2.275556-1.137778-3.413333 4.551111-4.551111 6.826667-6.826667-1.137778 3.413333-4.551111-3.413334-5.688889-5.688889 2.275556 4.551111 3.413333-1.137778 5.688889-20.48-1.137778-39.822222 3.413333-62.577777-2.275556-2.275556-1.137778 0-4.551111 1.137777-5.688889-3.413333 1.137778-3.413333 4.551111-4.551111 6.826667l-13.653333-3.413333h-11.377778l-3.413333 3.413333-6.826667-4.551111 1.137778-1.137778-11.377778-1.137778c-5.688889-1.137778-11.377778-1.137778-15.928889-2.275555l-5.688889-1.137778-3.413333 4.551111c-3.413333-1.137778-3.413333-1.137778-3.413333-4.551111-9.102222-2.275556-18.204444-3.413333-26.168889-6.826667l-4.551111-2.275555-1.137778 1.137777h-1.137778c-1.137778 0-1.137778 0 0-1.137777-4.551111-2.275556-7.964444-4.551111-11.377778-5.688889 2.275556 1.137778 5.688889-1.137778 7.964445-4.551111-4.551111-3.413333-2.275556-6.826667-6.826667-7.964445h-1.137778l-4.551111 6.826667 1.137778 1.137778c-1.137778 1.137778 1.137778 5.688889 0 6.826666-4.551111-3.413333-14.791111-3.413333-12.515555-11.377777-2.275556-1.137778-3.413333 4.551111-4.551112 6.826666-6.826667-4.551111-11.377778-4.551111-17.066666-5.688889-2.275556-1.137778 0-4.551111 1.137778-5.688889-4.551111-3.413333-7.964444 1.137778-12.515556-2.275555l1.137778-1.137778c1.137778-1.137778 0-1.137778-1.137778-2.275555-5.688889 2.275556-15.928889-4.551111-23.893333-7.964445 2.275556-2.275556 5.688889 0 5.688889-3.413333-3.413333 0-5.688889-1.137778-9.102223-1.137778-1.137778 0-3.413333 1.137778-4.551111 3.413333l-1.137778 2.275556-4.551111-3.413333c2.275556-2.275556 2.275556-3.413333 4.551111-3.413334-10.24-3.413333-19.342222-9.102222-28.444444-13.653333-3.948089-6.906311-13.016178-12.094578-24.996978-19.285333l-0.216178-0.136534 0.523378-0.341333 0.796445-0.7168-2.275556-1.137778-1.206044 0.887467-0.432356-0.250311c-0.955733-0.568889-1.934222-1.171911-2.912711-1.774934-1.137778 2.275556-7.964444-2.275556-9.102222 0-2.275556-1.137778 0-4.551111 1.137778-5.688889 2.275556 1.137778 3.413333 1.137778 5.688888 1.137778h1.137778l-11.377778-7.964444c7.964444-1.137778 9.102222-7.964444 7.964445-11.377778 6.826667 1.137778 1.137778 3.413333 3.413333 5.688889 2.275556 1.137778 5.688889-3.413333 5.688889-3.413333 1.137778-2.275556-3.413333-6.826667-3.413333-9.102223v-1.137777l11.377778 7.964444c-1.137778 6.826667-6.826667 1.137778-9.102223 7.964444 1.137778 4.551111 9.102222-6.826667 5.688889 1.137778 2.275556 1.137778 3.413333-4.551111 4.551111-6.826666 2.275556 1.137778 9.102222 10.24 12.515556 5.688888-1.137778 5.688889 5.688889 2.275556 7.964444 5.688889l1.137778 1.137778-7.964444 11.377778c-5.688889-1.137778 4.551111-6.826667-1.137778-7.964445-2.275556-1.137778-2.275556 2.275556-3.413333 4.551112 5.688889 11.377778 11.377778-1.137778 18.204444 3.413333-2.275556 2.275556-5.688889 0-5.688889 3.413333-2.275556 2.275556 6.826667 4.551111 1.137778 7.964445 2.070756 3.106133 2.2528 1.501867 3.128889 0.341333l0.284444-0.341333c2.275556-7.964444 9.102222-3.413333 7.964445-10.24v-1.137778c4.551111 3.413333 20.48 7.964444 21.617777 15.928889 9.102222-3.413333 22.755556 13.653333 32.995556 13.653333 6.826667 1.137778-3.413333 4.551111 3.413333 5.688889l-1.137777 1.137778c-1.137778 1.137778-1.137778 1.137778-2.275556 0 1.137778 3.413333 4.551111 3.413333 6.826667 4.551111 3.413333-4.551111-2.275556-4.551111 2.275555-7.964445l9.102222 4.551112c12.515556 6.826667 27.306667 12.515556 38.684445 12.515555 2.275556 1.137778 0 3.413333 0 3.413333 6.826667-2.275556 21.617778 2.275556 21.617778 5.688889 27.306667 1.137778 55.751111 6.826667 85.333333 11.377778l9.102222 1.137778 3.413334-4.551111c3.413333 2.275556 7.964444 1.137778 11.377777 3.413333l1.137778 1.137778v-2.275556c19.342222 4.551111 37.546667-5.688889 56.888889 0l3.413333 1.137778 3.413334-4.551111 1.137777 10.24c2.275556-12.515556 25.031111-7.964444 35.271112-13.653333 6.826667 4.551111 10.24 0 11.377777-2.275556 2.275556 2.275556 1.137778 3.413333 4.551111 3.413333 5.688889-7.964444 13.653333-9.102222 21.617778-10.24-3.413333 4.551111-1.137778 5.688889-1.137778 5.688889 4.551111 0-1.137778-7.964444 2.275556-7.964444 4.551111-2.275556 7.964444-3.413333 11.377778-4.551111l5.688889-1.137778 1.137777-1.137778 1.786312-2.127644 3.902577-1.285689 1.137778 1.137778s0-1.137778 3.413333-4.551111c-1.706667 0.853333-3.413333 1.069511-5.12 1.592888l-0.876088 0.341334 1.797688-1.888711c3.219911-3.299556 6.326044-5.882311 9.887289-8.009956l4.551111-3.413333c2.275556 5.688889 5.688889 1.137778 7.964445 2.275555 5.688889-2.275556-4.551111-3.413333 1.137778-5.688889 48.924444-10.24 95.573333-43.235556 141.084444-86.471111l4.551111-7.964444zM762.999467 1002.1888l-0.386845 0.512 0.8192-0.318578-0.432355-0.193422zM758.880711 998.968889c-1.024 2.048 1.6384 2.2528 3.834311 3.106133l0.284445 0.113778 1.570133-2.082133c-2.275556-2.275556-4.551111 0-5.688889-1.137778z m-124.017778-4.551111l1.137778 1.137778s-1.137778 0-1.137778-1.137778zM484.676267 989.866667v2.275555l-1.137778-1.137778 1.137778-1.137777z m312.581689-23.096889l-0.159289 0.182044c-1.308444 1.4336-2.6624 3.003733-4.084623 4.7104l1.786312-2.127644-2.924089 0.989866 1.137777-2.275555 3.413334-1.137778 0.830578-0.341333zM387.248356 936.391111H385.6896l1.137778 1.137778c-3.413333 4.551111-1.137778 5.688889-1.137778 5.688889 1.012622 1.012622 1.1264-1.570133 1.934222-3.754667l0.341334-0.796444c0.989867-1.991111 0.250311-2.241422-0.7168-2.275556z m-39.173689-9.352533l2.161777 1.308444-0.170666 0.136534c-1.285689 0.796444-1.922844 0.796444-1.922845 3.356444l-1.137777 1.137778v-1.137778c0-1.137778 0-2.275556-1.137778-2.275556h-1.137778l3.345067-2.525866zM320.836267 905.671111c-1.137778 2.275556-7.964444-2.275556-11.377778 5.688889l-4.551111-3.413333 0.4096-0.125156c0.785067-0.432356 2.082133-1.854578 3.606755-3.561244l0.477867-0.546134 0.182044-0.091022c5.074489-2.366578 11.252622-0.466489 11.252623 2.048z m-58.026667-299.235555c1.137778 3.413333 2.275556 7.964444 4.551111 11.377777l1.137778 3.413334-1.137778 1.137777v-1.137777l-1.115022 0.079644 4.528355 14.711467c2.275556 7.964444 5.688889 17.066667 9.102223 26.168889l3.413333 6.826666c-1.137778 2.275556-5.688889-1.137778-6.826667 4.551111 2.275556 2.275556 6.826667 1.137778 7.964445-1.137777 11.377778 12.515556 7.964444 28.444444 20.48 40.96-1.137778 5.688889-4.551111-3.413333-5.688889-1.137778 3.413333 5.688889 10.24 4.551111 13.653333 10.24l-1.137778 2.275555c-2.275556 2.275556-2.275556 2.275556-3.413333 1.137778-1.137778 2.275556 2.275556 1.137778 2.275556 1.137778 2.275556 1.137778 3.413333-4.551111 5.688889-3.413333l5.688888 7.964444c3.413333 4.551111 5.688889 7.964444 10.24 11.377778-1.137778 2.275556-3.413333 0-3.413333 0-1.137778 2.275556 2.275556 1.137778 2.275556 1.137778 2.275556 1.137778 2.275556-2.275556 3.413333-4.551111l4.551111 6.826666c2.275556 4.551111 5.688889 9.102222 5.688889 14.791111 2.275556 1.137778 2.275556-2.275556 3.413333-4.551111l2.275556 4.551111c3.413333 4.551111 5.688889 9.102222 11.377778 12.515556l-1.137778 1.137778c-0.978489 0.978489-1.9456 1.9456-3.640889 1.490489l-0.910222-0.352712s1.137778 1.137778 1.137778 2.275556v1.137778c1.137778-2.275556 3.413333-3.413333 7.964444-3.413334h1.137778c3.413333 5.688889 7.964444 9.102222 13.653333 12.515556l2.275556 2.275556-3.413334 4.551111c10.24 2.275556 19.342222 10.24 30.72 19.342222l6.826667 4.551111c17.066667 14.791111 40.96 19.342222 50.062222 32.995556h3.413334c3.413333 0 7.964444 0 6.826666 4.551111 7.964444-1.137778 20.48 7.964444 30.72 7.964444 5.688889 1.137778-3.413333 4.551111-1.137778 5.688889 6.826667-4.551111 22.755556 0 23.893334 7.964444 2.275556 1.137778 2.275556-2.275556 3.413333-4.551111 21.617778 11.377778 43.235556 4.551111 61.44 14.791111 9.102222-3.413333 20.48-4.551111 28.444445 3.413334l1.137777 1.137778 1.137778-2.275556c38.684444 2.275556 75.093333-5.688889 111.502222-14.791111l2.275556 2.275555c2.275556 2.275556 4.551111 3.413333 4.551111 6.826667 4.551111-2.275556 9.102222-12.515556 12.515556-17.066667l12.515555-4.551111c34.133333-10.24 59.164444-22.755556 94.435556-53.475555 5.688889 6.826667 11.377778-1.137778 17.066666 5.688889-36.408889 30.72-62.577778 44.373333-101.262222 61.44l-2.275555 1.137777c-3.413333 1.137778-7.964444 1.137778-12.515556-4.551111 0 7.964444-7.964444 11.377778-11.377778 15.928889l-1.137778 1.137778-6.826666-4.551111c-7.964444 10.24-17.066667 3.413333-22.755556 12.515555-14.791111-1.137778-28.444444 5.688889-42.097778 4.551112l-3.413333-1.137778-3.413333 4.551111c-0.944356-1.900089-2.685156-2.207289-3.902578-2.924089L668.996267 903.395556l-1.137778 2.275555-2.275556-1.137778-7.964444 1.137778-1.137778 1.137778-1.137778-1.137778c-1.137778-1.137778-2.275556-2.275556-2.275555-4.551111-5.688889-1.137778-1.137778 5.688889-4.551111 6.826667-7.964444-9.102222-10.24 0-14.791111-3.413334 2.275556-2.275556 5.688889-3.413333 3.413333-4.551111-3.413333 4.551111-6.826667 4.551111-12.515556-2.275555-4.221156 2.116267 1.365333 2.264178 1.262934 3.185777L625.760711 901.12l-11.377778 2.275556h-3.413333c-13.653333 0-26.168889-3.413333-39.822222-10.24l-3.413334-2.275556c-2.275556-1.137778 0-3.413333 0-3.413333-6.826667 5.688889-21.617778-2.275556-28.444444-6.826667-23.893333 1.137778-47.786667-12.515556-71.68-19.342222-2.275556-1.137778 0-3.413333 0-3.413334-6.826667 1.137778-17.066667-7.964444-25.031111-9.102222h-2.275556l-0.728177-0.557511 3.003733-3.9936c-1.024-1.024-1.1264 0.7168-2.798933 3.561245l-0.250312 0.398222-3.777422-2.821689c-15.928889-11.377778-28.444444-18.204444-42.097778-27.306667l1.137778-1.137778c2.275556-2.275556 2.275556-2.275556 5.688889 0l1.137778 1.137778 1.137778-2.275555c1.137778-2.275556-4.551111-3.413333-3.413334-5.688889-3.413333 1.137778-6.826667-1.137778-10.24 0-1.137778 5.688889 4.551111 3.413333 6.826667 4.551111-1.137778 2.275556-5.688889-1.137778-6.826667 5.688889l-3.413333-4.551111c-4.551111-5.688889-9.102222-10.24-14.791111-12.515556l-2.275556-1.137778 3.413334-4.551111c-4.551111-3.413333-5.688889 3.413333-10.24 0s1.137778-6.826667-1.137778-7.964444c-27.306667-10.24-42.097778-44.373333-60.302222-64.853334 5.688889-2.275556-4.551111-3.413333 1.137777-5.688888-2.275556-5.688889-3.413333 4.551111-5.688888-1.137778 1.137778-5.688889-3.413333-9.102222-7.964445-12.515556l1.137778-2.275555c2.275556-3.413333 3.413333-4.551111 5.688889-3.413334 0-4.551111-6.826667-4.551111-7.964445-2.275555-2.275556-2.275556-3.413333-5.688889-7.964444-9.102222 2.275556-2.275556 0-4.551111 3.413333-4.551112-14.051556-9.728-15.780978-21.504-15.928889-31.448177V650.808889s-1.137778 1.137778-3.413333 0c1.137778-2.275556 1.137778-5.688889 3.413333-9.102222l1.137778-1.137778-4.551111-3.413333c-5.688889 2.275556 4.551111 3.413333-1.137778 5.688888l-2.275555-3.413333c-2.275556-3.413333-3.413333-7.964444-3.413334-11.377778V625.777778l4.551111 3.413333c1.012622-2.025244 1.1264-4.949333 4.323556-7.168l1.092267-0.648533-0.864711 0.227555a11.946667 11.946667 0 0 0-4.551112 3.037867l-1.137777 1.137778c-2.275556-1.137778 1.137778-5.688889-5.688889-6.826667 1.137778-6.826667 6.826667-1.137778 9.102222-7.964444-4.551111-3.413333-5.688889 2.275556-7.964444 1.137777 5.688889-2.275556-4.551111-3.413333 1.137777-5.688888 3.413333 4.551111 5.688889 1.137778 6.826667 0z m42.939733 300.2368l-0.512 0.762311 0.443734-0.659911 0.068266-0.1024zM283.2896 853.333333c1.137778 3.413333 5.688889 6.826667 11.377778 7.964445l-1.137778 1.137778c-1.137778 2.275556-2.275556 3.413333 0 4.551111 1.137778 1.137778 0-3.413333 2.275556-4.551111 2.275556 1.137778 4.551111 6.826667 3.413333 9.102222 11.377778 5.688889 18.204444 10.24 23.893333 17.066666-4.551111 3.413333-3.413333 1.137778-4.551111 5.688889v1.137778h-2.275555l-3.413334 4.551111c-1.024 1.024-2.048 2.1504-3.015111 3.231289l-0.455111 0.500622-0.887467 0.477867a10.24 10.24 0 0 0-1.968355 1.570133l-0.796445 0.910223 3.709156-5.552356c-6.826667 4.551111-18.204444-5.688889-27.306667-12.515556 3.413333 0 4.551111-2.275556 10.24-2.275555h1.137778l-3.413333 4.551111c11.377778-5.688889-6.826667-12.515556-13.653334-17.066667-5.688889 2.275556 4.551111 3.413333-1.137777 5.688889-7.964444-2.275556-4.551111-6.826667-7.964445-12.515555 3.413333 1.137778 4.551111-2.275556 7.964445-6.826667l1.137777-1.137778v-1.137778c1.137778-2.275556 3.413333-5.688889 6.826667-4.551111z m45.511111 42.097778c2.275556 1.137778 0 3.413333-1.137778 5.688889l-4.551111-3.413333c3.413333-4.551111 5.688889 1.137778 5.688889-2.275556zM273.0496 843.093333l5.688889 6.826667c1.137778 1.137778-3.413333-3.413333-10.24-1.137778 2.025244 1.012622 2.2528 5.620622 5.461333 7.429689l1.365334 0.534756c-3.413333 1.137778-4.551111 3.413333-6.826667 6.826666-9.102222-2.275556-4.551111-9.102222-12.515556-11.377777-2.275556-1.137778 5.688889 1.137778 5.688889 1.137777 2.275556-2.275556 6.826667-3.413333 11.377778-10.24z m295.822222-176.355555c-1.137778 5.688889 3.413333 5.688889 5.688889 1.137778l2.275556 2.275555c3.413333 2.275556 5.688889 4.551111 4.551111 5.688889 2.275556 1.137778 1.137778-2.275556 5.688889-3.413333 35.271111 15.928889 70.542222 27.306667 106.951111 40.96 12.515556 9.102222 26.168889 12.515556 39.822222 13.653333 2.275556 9.102222 18.204444 5.688889 28.444444 13.653333 0 1.137778-1.137778 2.275556-1.137777 2.275556l5.688889-1.137778c2.275556-1.137778 5.688889-1.137778 7.964444-1.137778 5.688889 1.137778 6.826667 7.964444 11.377778 5.688889-1.137778 2.275556-5.688889 4.551111-2.275556 6.826667 2.275556 1.137778 3.413333-4.551111 5.688889-4.551111 30.72 13.653333 60.302222 19.342222 94.435556 40.96 13.653333-2.275556 31.857778 11.377778 45.511111 11.377778 6.826667 11.377778 28.444444 10.24 44.373333 20.48l0.443733 0.227555-0.193422 0.170667a1.3312 1.3312 0 0 0-0.238933 0.625778l-0.011378 0.113777 0.762311-0.773689 1.513245 0.773689 1.137777-1.137777 1.137778-1.137778c6.826667 2.275556 1.137778 7.964444 2.275556 9.102222 2.275556 1.137778 3.413333-4.551111 6.826666-4.551111 4.551111 5.688889 15.928889 4.551111 12.515556 9.102222l1.137778 0.284445v26.282666c-2.696533-1.763556-4.471467-1.706667-7.964445-3.811555 5.688889-3.413333-3.413333-5.688889 0-9.102223-2.275556-1.137778-5.688889 4.551111-1.137777 5.688889-21.617778-3.413333-45.511111-11.377778-67.128889-25.031111 3.413333-4.551111 2.275556-6.826667-1.137778-10.24-1.137778 2.275556 1.137778 7.964444-3.413333 9.102222-19.342222-11.377778-50.062222-12.515556-63.715556-30.72-2.275556-1.137778-1.137778 2.275556-5.688889 3.413334-86.471111-31.857778-172.942222-67.128889-258.275555-97.848889-4.551111-3.413333 1.137778-5.688889-1.137778-7.964445-2.275556-2.275556-3.413333 4.551111-5.688889 4.551112-17.066667-9.102222-34.133333-12.515556-45.511111-23.893334 3.413333-4.551111 7.964444 5.688889 10.24-1.137778 4.551111 3.413333 3.413333 5.688889 4.551111 5.688889 2.275556 1.137778 4.551111-5.688889 7.964444-1.137777 1.137778-2.275556 2.275556-6.826667 5.688889-11.377778zM439.529244 848.190578l0.045512 0.034133-0.4096 0.557511 0.364088-0.591644zM158.134044 629.191111v1.137778h-1.137777c-4.551111 0-7.964444 3.413333-5.688889 7.964444v1.137778l-4.551111-3.413333-3.413334 4.551111c-2.275556 2.275556 6.826667 4.551111 1.137778 7.964444 3.413333 3.413333 6.826667-3.413333 10.24-6.826666l1.137778-1.137778c0 0.853333 0.637156 1.069511 0.955733 1.592889l0.182045 0.682666c2.275556 2.275556 5.688889-2.275556 5.688889 1.137778-6.826667 5.688889 4.551111 6.826667-2.275556 12.515556l3.413333 4.551111c6.826667 10.24 13.653333 21.617778 5.688889 28.444444 0 3.413333 2.275556 5.688889 3.413334 7.964445v1.137778l7.964444-1.137778c6.826667 7.964444 5.688889 18.204444 11.377778 25.031111-1.137778 6.826667-5.688889 3.413333-6.826667 4.551111 2.275556 2.275556 6.826667 1.137778 7.964445-1.137778 10.24 7.964444 11.377778 14.791111 12.515555 22.755556 0 0.944356 0.091022 1.7408 0.273067 2.412089l0.193422 0.523377-0.466489 0.477867h0.477867l0.147911-0.034133 0.432355 0.750933c1.342578 1.934222 3.868444 2.696533 6.906312 4.972089-4.551111 2.275556 3.413333 3.413333 2.275555 6.826667v1.137777l1.137778-2.275555 5.688889 9.102222c9.102222 14.791111 18.204444 29.582222 30.72 42.097778l3.413333 3.413333c-2.275556 2.275556 0 4.551111-3.413333 4.551111 2.275556 1.137778 5.688889 1.137778 9.102222 3.413334l1.137778 1.137777-4.551111 6.826667-4.551111-3.413333c-1.137778 2.275556 2.275556 4.551111-2.275556 7.964444-5.688889-1.137778 3.413333-4.551111 1.137778-5.688889-2.275556 2.275556-7.964444 1.137778-9.102222 7.964445-2.275556-3.413333-5.688889-4.551111-7.964445-9.102222-1.137778-1.137778-1.137778-1.137778-2.275555-4.551112-2.275556-5.688889-6.826667-10.24-11.377778-14.791111 1.137778-2.275556 0-3.413333 3.413333-5.688889l1.137778-1.137777-6.826667-4.551111c3.413333-4.551111 2.275556-7.964444 2.275556-7.964445-1.137778 2.275556-5.688889 3.413333-6.826667 5.688889-7.964444-5.688889-4.551111-10.24-15.928889-14.791111 2.275556-2.275556 1.137778-5.688889 4.551111-10.24 2.275556 1.137778 0 3.413333 0 3.413333 7.964444-1.137778 4.551111-11.377778 3.413334-14.791111l-2.275556 2.275556c-2.275556 2.275556-3.413333 4.551111-6.826667 4.551111-6.826667-1.137778 3.413333-4.551111-3.413333-5.688889-3.413333 4.551111 3.413333 9.102222-2.275555 12.515555-5.688889-11.377778-11.377778-19.342222-19.342223-28.444444l2.275556-2.275556c2.275556-3.413333 3.413333-4.551111 2.275555-7.964444-5.688889-1.137778-1.137778 5.688889-4.551111 6.826667-2.275556-9.102222-1.137778-14.791111-12.515555-19.342223l1.137778-2.275555c2.275556-3.413333 4.551111-4.551111 7.964444-1.137778 2.275556-2.275556 0-4.551111 1.137778-5.688889-9.102222 3.413333-6.826667-15.928889-14.791111-7.964444-6.826667-14.791111-12.515556-30.72-17.066667-45.511111l-2.275556-5.688889 4.551112-6.826667c-2.275556-1.137778-3.413333 1.137778-5.688889 3.413333-3.413333-5.688889 0-10.24-6.826667-14.791111l2.275556-3.413333c2.275556-3.413333 5.688889-6.826667 7.964444-6.826667 2.275556 1.137778 0 3.413333 0 3.413334 11.377778 3.413333 4.551111-2.275556 7.964444-2.275556 5.688889 1.137778 12.515556-3.413333 10.24 0z m815.786667 194.571378c-1.137778 4.539733 2.275556 9.090844-1.137778 12.504178 4.209778-2.104889 1.615644-6.144 1.194667-11.218489L973.920711 823.751111z m1.137778-2.286933l-0.375467 0.364088-0.318578-0.147911 0.136534-0.1024 0.557511-0.113777z m-566.613333-4.551112c2.025244 2.025244 3.151644 0.455111 3.367822 0.079645l0.045511-0.079645c-1.137778-1.137778-2.275556-1.137778-3.413333 0z m-207.075556-64.853333c-1.137778 2.275556 2.275556 1.137778 2.275556 1.137778 1.012622 2.025244 2.025244 1.353956 2.230044-0.420978l0.045511-0.7168c-1.137778 1.137778-3.413333-1.137778-4.551111 0z m5.688889-1.137778v0.477867c-0.022756 0.398222-0.079644 0.557511-0.341333 0.6144l-0.170667 0.011378-0.022756-0.034134-0.136533-0.4096L207.058489 750.933333z m547.271111-10.24c0 1.001244 1.7408 1.115022 4.460089 1.137778h1.2288c-1.137778 0-3.413333-2.275556-5.688889-1.137778z m77.368889-215.04l100.124444 39.822223-31.857777 79.644444-68.266667-27.306667-18.204445 46.648889c-3.413333 7.964444-1.137778 13.653333 6.826667 15.928889l26.168889 10.24c5.688889 2.275556 10.24 2.275556 13.653333 0 3.413333-2.275556 9.102222-12.515556 17.066667-28.444444 6.826667 5.688889 13.653333 12.515556 22.755556 18.204444l-5.688889 9.102222-3.413334 4.551111c-5.688889 9.102222-10.24 15.928889-13.653333 18.204445-4.551111 3.413333-9.102222 5.688889-14.791111 6.826667-5.688889 0-12.515556-1.137778-20.48-3.413334l-44.373333-18.204444c-17.066667-6.826667-22.755556-20.48-14.791112-39.822222l29.582223-73.955556 68.266666 27.306667 13.653334-34.133334-71.68-28.444444 9.102222-22.755556zM505.156267 680.391111c4.551111 3.413333 5.688889 6.826667 3.413333 9.102222-3.413333-3.413333-2.275556-4.551111-3.413333-9.102222zM750.916267 550.684444l40.96 15.928889-28.444445 70.542223 2.275556-1.137778 5.688889-1.137778c4.551111-1.137778 9.102222-2.275556 15.928889-4.551111-3.413333 11.377778-5.688889 21.617778-6.826667 28.444444l-9.102222 2.275556c-18.204444 4.551111-32.995556 9.102222-42.097778 13.653333l-5.688889-22.755555c3.413333-2.275556 6.826667-6.826667 10.24-12.515556l23.893333-58.026667-17.066666-6.826666 10.24-23.893334z m-222.185245 96.6656l1.456356 0.568889c4.755911 1.763556 9.580089 3.265422 14.791111 5.165511-2.275556 2.275556-3.413333 1.137778-5.688889 3.413334-1.137778 2.275556 3.413333 2.275556 4.551111 5.688889l0.932978-0.455111-0.079645 0.113777a12.060444 12.060444 0 0 0-0.853333 1.479111v1.137778c-7.566222-5.404444-17.180444-7.736889-15.200711-16.725333l0.091022-0.386845zM76.214044 381.155556c-1.137778 2.275556 2.275556 2.275556 3.413334 5.688888-12.515556 17.066667-10.24 35.271111-23.893334 37.546667 2.275556 1.137778 3.413333 0 5.688889 1.137778h1.137778l-5.688889 7.964444c-1.137778-1.137778-3.413333-6.826667-6.826666-2.275555-1.137778 5.688889 5.688889 4.551111 9.102222 3.413333-2.275556 12.515556-15.928889 14.791111-11.377778 26.168889 4.551111-3.413333 9.102222-5.688889 14.791111-7.964444 7.964444 2.275556 1.137778 7.964444 9.102222 9.102222l1.137778-1.137778c1.137778-1.137778 0-1.137778-1.137778-2.275556l13.653334 5.688889c80.782222 30.72 98.986667 45.511111 185.457777 76.231111l2.275556 1.137778c2.275556 2.275556 3.413333 3.413333 2.275556 4.551111 2.275556 1.137778 2.275556-2.275556 5.688888-3.413333 2.275556 2.275556 2.275556 5.688889 1.137778 7.964444 3.413333 0 0-5.688889 5.688889-4.551111 30.72 14.791111 60.302222 25.031111 86.471111 35.271111l4.551111 3.413334c5.688889 3.413333 9.102222 5.688889 13.653334 3.413333 2.275556 6.826667 7.964444 5.688889 13.653333 6.826667-2.275556 3.413333-4.551111-2.275556-5.688889 4.551111 5.688889-2.275556 13.653333 3.413333 18.204445-2.275556 2.275556 1.137778 0 6.826667 6.826666 7.964445 2.275556 1.137778 2.275556-2.275556 5.688889-3.413334 12.515556 9.102222 35.271111 9.102222 39.822222 19.342223l3.413334-1.137778c3.413333-1.137778 6.826667-1.137778 10.24 3.413333-2.275556 2.275556-3.413333 1.137778-5.688889 3.413334 0 3.413333 2.275556 5.688889 2.275555 9.102222 2.275556 1.137778 2.275556-3.413333 5.688889-4.551111l-1.137778-1.137778c-1.137778-1.137778-1.137778 0-2.275555 1.137778-2.275556-6.826667 9.102222-2.275556 14.791111 2.275555-5.688889 0-3.413333 4.551111 1.137778 7.964445-1.137778-10.24 6.826667 4.551111 10.24-4.551111a77.141333 77.141333 0 0 0 14.791111 8.476444l1.479111 0.6144-1.513244 0.011378c-3.219911 0.045511-7.054222 0.375467-9.068089 3.413333l-1.137778 1.137778h3.413333l2.275556 1.137778c-1.137778 6.826667-4.551111-3.413333-5.688889 3.413333 2.275556 5.688889 3.413333-4.551111 5.688889 1.137778-4.551111 3.413333 6.826667 4.551111 1.137778 7.964444-10.24-7.964444-18.204444-3.413333-29.582223-14.791111 2.275556 1.137778 7.964444-6.826667 5.688889-7.964444-6.826667 2.275556-11.377778 7.964444-14.791111 7.964444-1.137778-1.137778-9.102222-3.413333-4.551111-5.688889-4.551111-3.413333 0 3.413333-3.413333 4.551111-23.893333-13.653333-62.577778-20.48-71.68-32.995555-2.275556-1.137778-2.275556 2.275556-5.688889 3.413333-9.102222-6.826667-21.617778-5.688889-26.168889-15.928889-2.275556-1.137778-2.275556 2.275556-5.688889 3.413334-65.991111-27.306667-133.12-48.924444-199.111111-80.782223 1.137778-1.137778 0-5.688889 0-9.102222-5.688889 1.137778 2.275556 6.826667-1.137778 11.377778-12.515556-5.688889-25.031111-11.377778-37.546667-13.653333l-5.688888-1.137778-23.893334-5.688889-12.515555-5.688889c-34.133333-14.791111-13.653333-9.102222-61.44-29.582222 2.275556-3.413333 1.137778-13.653333 10.24-13.653334-4.551111-6.826667 0-12.515556 5.688889-19.342222 2.275556 1.137778 0 3.413333 0 4.551111 2.275556 1.137778 2.275556-2.275556 5.688888-3.413333 1.137778-2.275556-3.413333-2.275556-4.551111-5.688889l18.204445-48.924444 1.137778 1.137777c4.551111-5.688889 11.377778 0 15.928888-9.102222 2.275556-2.275556 2.275556 1.137778 0 3.413334zM546.116267 661.048889c0 1.137778 1.137778 1.137778 0 2.275555v-2.275555z m-0.512-0.182045l-0.2048 0.4096a4.243911 4.243911 0 0 1-1.558756 0.910223l0.932978-0.455111 0.341333-0.432356a3.037867 3.037867 0 0 1 0.432356-0.398222l0.056889-0.034134zM544.978489 654.222222c2.275556 1.137778 2.275556 3.413333 2.275555 5.688889v1.137778c-0.432356-0.432356-0.853333-0.534756-1.285688-0.375467l-0.364089 0.193422c0.250311-1.365333-4.164267-2.389333-1.615645-3.902577l0.375467-0.193423-0.216178-0.159288c-0.762311-0.796444 0.034133-1.592889 0.830578-2.389334z m0 2.275556l-0.6144 0.273066 0.216178 0.182045c0.170667 0.113778 0.386844 0.227556 0.648533 0.341333l0.887467 0.341334-1.137778-1.137778z m53.475555-229.831111l73.955556 29.582222-7.964444 20.48c-9.102222 6.826667-18.204444 12.515556-28.444445 17.066667L682.6496 512c-4.551111-17.066667-7.964444-34.133333-6.826667-53.475556h25.031111c0 6.826667 0 14.791111 1.137778 21.617778 10.24-1.137778 21.617778-3.413333 32.995556-6.826666l9.102222 21.617777c-12.515556 2.275556-26.168889 5.688889-38.684444 7.964445 1.137778 3.413333 2.275556 7.964444 3.413333 11.377778 12.515556-2.275556 23.893333-5.688889 35.271111-7.964445l9.102222 21.617778c-10.24 2.275556-21.617778 4.551111-34.133333 6.826667 5.688889 9.102222 13.653333 18.204444 22.755555 26.168888-6.826667 4.551111-14.791111 9.102222-23.893333 15.928889l-10.24-13.653333-19.342222 47.786667-21.617778-9.102223 10.24 10.24-11.377778 6.826667 42.097778 17.066667-7.964444 20.48-174.08-70.542222 7.964444-20.48 40.96 17.066666c-1.137778-5.688889-2.275556-10.24-3.413333-13.653333h14.791111l-22.755556-9.102222 19.342223-47.786667c-5.688889 1.137778-12.515556 2.275556-19.342223 3.413333 0-7.964444-1.137778-17.066667-3.413333-27.306666 10.24 0 21.617778-1.137778 31.857778-3.413334-3.413333-7.964444-7.964444-15.928889-13.653334-25.031111l19.342223-7.964444c5.688889 9.102222 11.377778 18.204444 15.928889 26.168889 9.102222-3.413333 17.066667-7.964444 26.168888-12.515556l-48.924444-19.342222 7.964444-19.342222z m-89.884444 215.04l-2.275556 2.275555c-2.275556 2.275556-3.413333 3.413333-9.102222 7.964445 4.551111-1.137778 9.102222-1.137778 13.653334-1.137778h1.137777v-1.137778c-1.137778-2.275556-3.413333-4.551111-3.413333-6.826667v-1.137777z m20.48 4.551111l-0.318578 1.092266-1.388089-0.523377-1.365333-0.568889h3.072z m-370.915556-7.964445v1.137778l-1.137777 1.137778c-1.001244-0.989867-1.115022-1.115022 0.386844-1.900089l0.750933-0.375467z m1.137778-1.137777h-1.137778c-0.910222 0-2.548622 0-3.754666-0.580267l-0.796445-0.557511c2.275556 1.137778 4.551111-2.275556 5.688889 1.137778z m106.951111-15.928889l-0.273066 0.147911 0.273066-0.056889h0.022756L266.222933 621.226667z m332.231111-46.648889l3.413334 20.48 32.995555 13.653333c6.826667-4.551111 12.515556-9.102222 17.066667-12.515555l-53.475556-21.617778z m-461.937777 10.24c6.826667 1.137778-3.413333 4.551111 3.413333 5.688889-2.025244 2.025244-4.949333 3.151644-7.168 1.774933L131.965156 591.644444l4.551111-6.826666z m6.826666-7.964445l4.551111 2.275556-3.413333 4.551111c-2.275556-1.137778-4.551111 2.275556-7.964444-2.275556 1.137778-2.275556 4.551111 0 6.826666-3.413333v-1.137778z m456.248889-40.96l-5.688889 12.515556L671.271822 580.266667l5.688889-12.515556-77.368889-31.857778zM136.516267 571.164444c4.551111 3.413333-1.137778 5.688889-2.275556 7.964445-2.275556-1.137778 3.413333-3.413333 2.275556-7.964445z m281.031111-215.04l143.36 58.026667-35.271111 86.471111-112.64-45.511111-12.515556 31.857778c-4.551111 12.515556-1.137778 20.48 9.102222 25.031111l65.991111 27.306667c5.688889 2.275556 10.24 3.413333 14.791112 2.275555 4.551111-1.137778 7.964444-2.275556 10.24-6.826666l2.275555-3.413334c3.413333-4.551111 7.964444-12.515556 13.653333-23.893333l5.757156 5.745778c6.371556 6.337422 11.684978 11.446044 16.9984 15.872l-11.377778 18.204444c-3.413333 4.551111-5.688889 7.964444-7.964444 11.377778-4.551111 6.826667-11.377778 10.24-19.342222 11.377778-7.964444 1.137778-17.066667-1.137778-28.444445-4.551111L394.791822 534.755556c-25.031111-10.24-32.995556-28.444444-21.617778-55.751112l30.72-76.231111 26.168889 10.24-6.826666 17.066667 86.471111 35.271111 14.791111-37.546667-117.191111-47.786666 10.24-23.893334z m202.524444 145.635556c-9.102222 3.413333-19.342222 6.826667-29.582222 9.102222l112.64 45.511111c-6.826667-9.102222-11.377778-19.342222-15.928889-28.444444l-3.413333 9.102222-67.128889-27.306667 3.413333-7.964444z m184.32 2.275556c3.413333 12.515556 6.826667 27.306667 10.24 42.097777l-7.964444 1.137778-5.688889 1.137778c-4.551111 1.137778-9.102222 1.137778-14.791111 2.275555-2.275556-15.928889-4.551111-30.72-6.826667-43.235555l25.031111-3.413333z m-80.782222-116.053334l32.995556 13.653334c81.021156 32.0512 162.747733 62.714311 244.622222 94.708622v19.342222l-15.928889-6.291911c-63.704178-25.031111-127.305956-48.969956-190.008889-70.212267-11.377778-11.377778-27.306667-4.551111-29.582222-18.204444-3.413333 0-5.688889 3.413333-9.102222 2.275555-2.275556-6.826667-10.24-9.102222-17.066667-10.24-3.413333 0-5.688889-1.137778-6.826667-2.275555l4.551111-5.688889-5.688889-4.551111c-1.137778 5.688889 1.137778 3.413333-4.551111 5.688889-1.137778-7.964444-6.826667-2.275556-14.791111-10.24-2.275556-1.137778-3.413333 4.551111-5.688889 4.551111a3.731911 3.731911 0 0 1-1.137777-2.730667v-1.820444l1.137777-1.137778h1.137778c3.413333-2.275556 10.24-2.275556 7.964445-5.688889l4.551111 3.413333 3.413333-4.551111z m275.342222 18.204445c0.853333 1.422222 1.570133 2.56 2.275556 3.527111l0.011378 4.972089c-2.343822-3.128889-5.108622-6.121244-5.700267-8.4992-1.137778-3.413333 4.551111 3.413333 3.413333 0z m-1.137778-31.857778c2.275556 1.137778-1.137778 5.688889 3.413334 5.688889l-3.413334 4.551111c1.456356 0.420978 2.571378 0.910222 3.447467 1.456355L1001.227378 399.109689c-1.3312-0.398222-1.809067 2.195911-3.413334 1.388089-2.275556-2.275556-3.413333-5.688889-7.964444-9.102222 0-3.413333 4.551111-6.826667 2.275556-7.964445 3.413333-4.551111 5.688889 1.137778 5.688888-3.413333-1.137778 0-3.413333-1.137778 0-5.688889z m-295.822222 14.791111c0 0.989867 0.876089 1.991111 3.3792 2.980978l1.171911 0.432355-0.568889 0.568889-0.386844 0.386845L705.405156 393.671111l-2.275556 3.413333c-0.910222-1.820444-1.092267-3.640889-1.137778-5.461333v-2.503111z m-25.031111-21.617778l1.137778 1.137778c3.413333 2.275556 5.688889 3.413333 9.102222 6.826667 2.275556 1.137778 1.137778-2.275556 5.688889-3.413334 2.082133 1.046756 7.042844 3.037867 6.098489 5.12l-0.4096 0.568889c2.275556 0 4.551111 1.137778 6.826667 0l8.339911 4.164267-0.375467 0.386844h1.137778c-3.413333 0-9.102222 0-13.653334-3.413333 1.9456 1.9456 2.230044 3.072 2.275556 4.778667v0.876089l-0.125156-0.762312a9.693867 9.693867 0 0 0-2.1504-3.754666c-3.413333 4.551111-9.102222 2.275556-11.377777 3.413333-1.137778 5.688889 7.964444-1.137778 9.102222 3.413333l-3.413333 4.551112-2.275556-1.137778c-2.275556-2.275556-4.551111-2.275556-6.826667-2.275556 1.137778-5.688889-6.826667-7.964444-4.551111-14.791111-5.688889-1.137778-3.413333 4.551111-4.551111 5.688889 0-2.275556-1.137778-5.688889 0-10.24v-1.137778z m44.669156 17.783467l0.841955 0.420978-3.413333-1.137778c0.978489 0 1.115022 0 2.571378 0.7168zM714.507378 381.155556l4.551111 3.413333h-1.137778c-1.137778 0-2.275556 1.137778-2.275555-2.275556-3.413333 0-5.688889 4.551111-10.24 1.137778 3.413333 0 5.688889 1.137778 7.964444-1.137778h1.137778l-0.762311-0.386844 0.762311-0.750933z m-653.084445-1.137778l-2.275555 4.551111c-1.137778-1.137778-3.413333-2.275556-2.275556-4.551111h4.551111z m89.884445-187.733334c4.551111 5.688889-6.826667 9.102222-10.24 13.653334 2.275556 5.688889 3.413333-4.551111 5.688889 1.137778-12.515556 27.306667-15.928889 62.577778-37.546667 83.057777 0 5.313422 2.9696 0.705422 5.2224 1.001245l0.466489 0.136533-5.688889 7.964445 1.137778 1.137777c-0.978489 1.9456-1.9456 2.230044-2.924089 2.275556H106.934044l-3.413333 4.551111c0 21.617778-9.102222 43.235556-21.617778 62.577778-6.200889 0-12.401778 6.587733-17.760711 9.489066L62.560711 380.017778l12.515556-32.995556L91.005156 303.786667c2.275556-2.275556 3.413333-1.137778 5.688888-3.413334-1.137778-5.688889 4.551111-27.306667 13.653334-30.72-6.826667-17.066667 11.377778-36.408889 12.515555-54.613333 2.275556-5.688889 4.551111 3.413333 7.964445-1.137778 1.137778-2.275556-3.413333-2.275556-4.551111-5.688889l2.275555-2.275555c1.991111-2.992356 3.106133-4.232533 2.594134-6.781156L130.827378 197.973333c1.137778 1.137778 3.413333-1.137778 6.826666-3.413333l1.137778-1.137778 1.137778 1.137778c2.275556 1.137778 2.275556 3.413333 0 6.826667-1.012622 1.012622 0.682667 0.227556 2.6624 0.841955l0.750933 0.295822 7.964445-10.24z m831.715555 153.6c10.24 3.413333 3.413333 7.964444 10.24 12.515556-1.137778 2.275556-9.102222 3.413333-6.826666 9.102222 1.137778-2.275556 5.688889-3.413333 6.826666-4.551111 5.688889 1.137778-3.413333 4.551111 3.413334 5.688889-5.688889 3.413333-3.413333 0-4.551111 6.826667l-2.275556-1.137778c-3.413333-2.275556-4.551111-2.275556-5.688889-1.137778-3.413333-5.688889-3.413333-9.102222-6.826667-14.791111 1.137778-2.275556 3.413333 0 7.964445-1.137778-1.137778-3.413333-3.413333-5.688889-2.275556-11.377778z m-303.786666 15.928889c-1.137778 1.137778-2.275556 3.413333-2.275556 4.551111v1.137778h-1.137778l-4.551111-2.275555c-0.944356 0-1.103644 0-1.137778-0.659911V364.088889l1.137778-2.275556c2.275556-2.275556 5.688889-4.551111 7.964445 0z m298.097777-32.995555c4.551111 3.413333 3.413333 9.102222 10.24 10.24l-3.413333 4.551111c-5.688889 3.413333 1.137778 7.964444-4.551111 10.24-3.413333-5.688889-7.964444-9.102222-4.551111-13.653333-2.275556-1.137778-5.688889 3.413333-7.964445-2.275556 1.137778-2.275556 0-3.413333 3.413334-4.551111l4.551111 3.413333c4.551111-2.275556-1.137778-3.413333 2.275555-7.964444z m-48.298666-68.664889l-0.056889 0.113778c-0.284444 0.568889-0.568889 1.991111 1.706667 3.697777-5.688889 3.413333-3.413333 4.551111-4.551112 6.826667 7.964444 9.102222 23.893333 9.102222 19.342223 13.653333l-1.137778 1.137778c4.551111 0 10.24 4.551111 9.102222 9.102222v1.137778s1.137778-2.275556 3.413333 0c-1.137778 5.688889 4.551111 17.066667 12.515556 19.342222l-3.413333 4.551112v1.137777c-1.137778 1.137778-1.137778 1.137778 1.137777 3.413334-3.413333 0-3.413333 0-5.688888 3.413333-6.826667-4.551111-12.515556-11.377778-9.102223-15.928889 5.688889 1.137778-3.413333 4.551111 3.413334 5.688889 1.137778-2.275556-1.137778-7.964444 0-10.24-2.275556-1.137778-3.413333 4.551111-4.551111 6.826667l-2.275556-3.413334c-6.826667-7.964444-14.791111-14.791111-12.515556-25.031111-7.964444 1.137778-7.964444-9.102222-17.066666-12.515555l7.964444-11.377778a13.653333 13.653333 0 0 0 1.706667-1.456356l0.056889-0.079644zM961.405156 314.026667c-1.137778 2.275556 0 3.413333 0 3.413333 1.137778 1.137778 2.275556 0 3.413333-1.137778l-3.413333-2.275555z m-19.342223-27.306667l0.682667-0.182044a1.262933 1.262933 0 0 1-0.682667 0.182044z m2.275556-1.137778c-0.568889 0-0.853333 0.284444-1.137778 0.568889l1.137778-0.568889z m-70.542222-77.368889l6.826666 4.551111-3.413333 4.551112c4.551111 3.413333 7.964444 2.275556 12.515556 2.275555 10.24 14.791111 13.653333 17.066667 29.582222 28.444445l-6.826667 9.102222c4.551111 3.413333 4.551111-6.826667 10.24 0-1.137778 2.275556-5.688889-1.137778-6.826667 5.688889-10.24-4.551111-5.688889-11.377778-18.204444-15.928889 3.413333-4.551111 5.688889 1.137778 7.964444 2.275555l1.137778-2.275555c-3.413333-5.688889-11.377778-7.964444-12.515555-2.275556 1.137778-5.688889-13.653333-10.24-13.653334-17.066666-5.688889 3.413333-6.826667-4.551111-11.377777-7.964445 2.275556-9.102222 3.413333-5.688889 4.551111-11.377778z m55.296 51.859911c0.068267-0.091022 0.113778-0.1024 0.045511-0.022755l-0.1024 0.113778z m-638.486756-31.687111l0.648533 0.3072c-1.137778 1.137778-2.275556 0-2.275555 0v1.137778l-1.137778 1.137778c0-3.072 0.9216-3.3792 2.7648-2.582756zM390.240711 217.315556l-6.826667 9.102222c-4.551111-3.413333-10.24-4.551111-12.515555-5.688889 2.275556-1.137778 9.102222-11.377778 19.342222-3.413333z m-97.871644-0.056889c0.159289-0.011378 0.3072 0.056889 0.022755 0.056889l-0.091022-0.045512zM279.876267 215.04c0.682667 0 1.365333 0.4096 1.797689 0.739556L282.151822 216.177778l-0.056889 0.034133-0.398222-0.022755L281.014044 216.177778h-1.137777l-1.706667-0.864711 0.568889-0.273067z m-13.869511-2.161778l-1.069512 0.022756-0.989866 1.001244c-1.137778 1.137778 0 1.137778 1.137778 2.275556 2.56-1.706667 4.482844-2.776178 7.202133-2.730667l0.386844 0.034133a50.642489 50.642489 0 0 0-6.667377-0.591644z m-2.844445 0.182045l-0.523378 0.1024c-1.968356 0.398222-3.242667 1.308444-3.242666 3.015111 1.900089-0.637156 2.730667-1.968356 3.504355-2.833067l0.261689-0.284444z m9.5232 0.420977l1.3312 0.2048 1.308445 0.216178-1.604267-0.318578-1.035378-0.1024zM265.085156 212.764444c-0.762311-0.375467-1.262933-0.250311-1.729423 0.125156l-0.193422 0.170667 0.512-0.068267 1.1264-0.091022h0.136533z m290.133333-84.195555c7.304533 3.128889 10.774756-0.432356 16.566044 2.4576l1.6384 0.955733-2.275555 1.137778h1.137778c0 1.137778-1.137778 1.137778-1.137778 2.275556l-1.137778 1.137777-2.275556-1.137777-1.137777 1.137777c-2.275556 2.275556-2.275556 4.551111-2.275556 7.964445-32.005689 1.069511-58.003911 17.134933-90.191644 21.959111l-6.200889 0.750933-0.079645 0.113778c-4.096 4.926578-6.985956 0.455111-5.927822 7.896178-15.928889 2.275556-29.582222 21.617778-46.648889 22.755555-2.275556 7.964444-9.102222 7.964444-10.24 10.24-4.551111-3.413333 1.137778-5.688889-3.413333-5.688889l-2.275556-1.137777c-3.413333 0-6.826667 9.102222-7.964444 11.377777-2.275556-1.137778-3.413333 0-3.413333 0l-6.826667-4.551111c21.617778-20.48 42.097778-29.582222 63.715555-43.235555l5.688889 4.551111c2.275556-3.413333 2.275556-6.826667 3.413334-9.102222 2.275556 1.137778 3.413333-1.137778 3.413333-1.137778l10.945422 6.5536 0.432356-0.864711c2.275556-2.275556 2.275556-2.275556 3.413333-1.137778 1.137778-2.275556-4.551111-3.413333-6.826667-4.551111 5.688889-3.413333 10.24 0 14.791112-6.826667 3.413333 0-3.413333 4.551111-3.413334 4.551111h2.275556c3.413333 0 6.826667 0 10.24 2.275556l1.137778-2.275556c1.137778-2.275556-2.275556-1.137778-4.551112-3.413333 1.137778-5.688889 5.688889-3.413333 9.102223-7.964444 6.826667 4.551111 11.377778-5.688889 15.928889 1.137777l4.551111-6.826666c5.688889 1.137778-3.413333 4.551111 3.413333 5.688889-2.275556-11.377778 13.653333-4.551111 17.066667-13.653334 3.413333 5.688889 19.342222-6.826667 14.791111 3.413334 2.275556 1.137778 3.413333-4.551111 4.551111-6.826667z m299.235555 63.715555l12.515556 6.826667c-1.137778 2.275556-5.688889 3.413333-7.964444 1.137778-1.137778 2.275556 3.413333 5.688889 1.137777 7.964444l-10.24-6.826666c5.313422 1.058133 5.666133-1.8432 2.912711-4.084623L852.178489 196.835556c1.137778 0 1.137778-2.275556 2.275555-4.551112z m-136.533333-63.715555c1.137778-2.275556 5.688889 1.137778 5.688889-3.413333 17.066667 12.515556 28.444444 6.826667 43.235556 18.204444l-3.413334 4.551111c2.275556 1.137778 3.413333-4.551111 4.551111-6.826667 1.137778 7.964444 7.964444 2.275556 1.137778 7.964445 3.413333 5.688889 3.413333-4.551111 5.688889 1.137778 5.688889-3.413333-4.551111-3.413333 1.137778-5.688889l10.24 4.551111c9.102222 4.551111 18.204444 9.102222 18.204444 15.928889 4.551111 3.413333 7.964444-1.137778 10.24 0 4.551111 3.413333-5.688889 3.413333-1.137778 5.688889 4.551111 3.413333 3.413333 0 5.688889-3.413334 5.688889 2.275556 21.617778 10.24 23.893334 18.204445 1.137778-2.275556 7.964444 2.275556 10.24 4.551111l-3.413334 4.551111 1.137778 1.137778v1.137778c0 2.275556 0 2.275556-1.137778 4.551111-15.928889-14.791111-37.546667-17.066667-45.511111-29.582223-13.653333 0-34.133333-18.204444-47.786666-18.204444-2.275556-1.137778-2.275556-1.137778 0-3.413333-5.688889 3.413333-12.515556-2.275556-20.48-1.137778-37.546667-17.066667-77.368889-13.653333-112.64-18.204445 3.413333-4.551111 9.102222-3.413333 12.515555-7.964444 1.137778-2.275556-2.275556-1.137778-4.551111-3.413333 27.306667-1.137778 55.751111 1.137778 86.471111 9.102222z m4.551111-116.053333l7.964445 2.275555 7.964444-1.137778c5.688889 0-4.551111 6.826667-2.275555 7.964445 2.275556 1.137778 3.413333-4.551111 4.551111-6.826667 2.275556 1.137778 13.653333 0 11.377777 7.964445 2.275556 1.137778 2.275556-2.275556 3.413334-4.551112 12.515556 2.275556 22.755556 9.102222 34.133333 11.377778 6.826667 1.137778-3.413333 4.551111 3.413333 5.688889l7.964445 2.275556c12.515556 2.275556 28.444444 6.826667 35.271111 14.791111 2.275556-2.275556 6.826667 1.137778 7.964444-1.137778 14.791111 14.791111 27.306667 13.653333 45.511112 29.582222 1.137778 4.551111-3.413333 1.137778-5.688889 3.413334-1.137778 1.137778-1.137778 1.137778 0 1.137777l1.137777 1.137778h2.275556l-1.137778 1.137778c1.137778 1.137778 4.551111 1.137778 5.688889 2.275555-1.137778-7.964444 3.413333-1.137778 6.826667-5.688888l4.551111 2.275555c13.653333 6.826667 30.72 14.791111 34.133333 22.755556 7.964444 3.413333 6.826667 5.688889 14.791111 7.964444-3.413333 10.24 11.377778 9.102222 21.617778 18.204445l1.137778 1.137777-5.688889 7.964445c4.551111 3.413333 7.964444 2.275556 10.24 0l2.275556 2.275555c3.413333 3.413333 7.964444 6.826667 3.413333 9.102223 2.275556 1.137778 3.413333-1.137778 5.688889-3.413334 3.629511 3.185778 7.031467 6.3488 10.262755 9.534578v36.408889a25.941333 25.941333 0 0 0-4.573866-3.845689l-3.413334-2.275556 4.551111-6.826666c-9.102222 7.964444-20.48-7.964444-21.617777-15.928889-7.964444 1.137778-13.653333-12.515556-23.893334-17.066667 2.275556-2.275556-2.275556-5.688889 1.137778-5.688889-2.275556-5.688889-4.551111-3.413333-5.688889-1.137777-35.271111-29.582222-77.368889-50.062222-104.675555-72.817778-6.826667-1.137778 0 3.413333-3.413334 4.551111-47.786667-28.444444-93.297778-30.72-136.533333-45.511111-25.031111 2.275556-52.337778-9.102222-71.68-2.275556-6.826667-4.551111-9.102222 3.413333-14.791111-3.413333l-4.551111 1.137778c-2.275556 1.137778-5.688889 1.137778-9.102222 3.413333-12.515556-4.551111-23.893333 2.275556-37.546667 2.275556-11.377778 0-22.755556 1.137778-29.582222 5.688888l-1.137778 1.137778-4.551111-3.413333c-10.24 10.24-20.48 1.137778-27.306667 10.24l-1.137778 1.137778-4.551111-3.413334-4.551111 6.826667c-29.582222 3.413333-59.164444 17.066667-87.608889 32.995556a3.731911 3.731911 0 0 1-1.137778-2.730667V80.782222h-2.275555c-1.137778 1.137778-3.413333 4.551111-3.413333 3.413334v-1.137778c-5.688889 2.275556 4.551111 3.413333-1.137778 5.688889-5.688889-1.137778-2.275556-2.275556-3.413334-5.688889l0.785067-1.581511 0.455111-0.238934c1.115022-0.682667 1.911467-1.365333 2.616889-2.048L398.205156 78.506667c-0.910222 0-1.820444 0.728178-2.730667 1.592889l-0.682667 0.682666c-1.137778 0-2.275556 0-2.275555 1.137778l0.568889 0.568889a5.370311 5.370311 0 0 1-3.982223 1.706667h-1.137777c0 3.413333-1.137778 4.551111 1.137777 4.551111-5.688889 7.964444-12.515556 3.413333-18.204444 15.928889-5.688889 0 4.551111-6.826667 2.275555-7.964445-3.413333 0-4.551111 6.826667-4.551111 6.826667l-22.755555 14.791111c-25.031111 15.928889-46.648889 32.995556-70.542222 63.715555l-3.413334 4.551112L250.294044 170.666667c15.928889-12.515556 17.066667-18.204444 31.857778-34.133334 12.515556-13.653333 26.168889-19.342222 38.684445-34.133333l3.413333-3.413333 5.688889 4.551111c3.413333-9.102222 9.102222-9.102222 13.653333-19.342222 4.551111 3.413333 0 5.688889 7.964445 9.102222-2.275556 2.275556-5.688889 0-5.688889 3.413333-1.137778 2.275556 4.551111 3.413333 6.826666 4.551111 3.413333-9.102222 5.688889-11.377778 12.515556-17.066666-4.551111-3.413333-5.688889 2.275556-9.102222 3.413333-2.275556-1.137778 1.137778-5.688889-5.688889-6.826667 1.137778-2.275556 4.551111 0 6.826667-3.413333v-1.137778l6.826666 4.551111c5.688889-2.275556 1.137778-5.688889 2.275556-7.964444 3.151644 2.104889 6.303289-3.549867 7.657244-6.223645L374.311822 65.991111l5.688889 4.551111c-5.688889 2.275556-6.826667 4.551111-12.515555 7.964445 3.413333 9.102222 11.377778-5.688889 15.928888-2.275556 0-2.275556 1.137778-3.413333 1.137778-5.688889 2.275556 1.137778 0 3.413333 0 3.413334 3.413333-1.137778 9.102222-7.964444 6.826667-9.102223 7.964444-3.413333 17.066667-10.24 26.168889-15.928889l3.413333-2.275555 9.102222 6.826667 1.137778-2.275556c2.275556-3.413333 5.688889-3.413333 7.964445-7.964444-3.413333-5.688889-4.551111 6.826667-7.964445 1.137777 3.413333-1.137778 6.826667-4.551111 7.964445-6.826666l1.137777-1.137778 7.964445 1.137778c5.688889-2.275556 4.551111 0 9.102222-3.413334 3.413333-1.137778 6.826667-5.688889 9.102222-7.964444 3.413333 0 5.688889 1.137778 6.826667 2.275555l1.137778 1.137778 3.413333-4.551111c2.275556-2.275556 6.826667 1.137778 10.24 0 0.944356 0 1.900089 0 2.184533-0.659911L490.365156 23.893333h1.137777c1.012622 1.012622 2.924089-1.570133 3.333689-2.958222l0.079645-0.455111c2.048 2.048 0.4096 3.1744-1.592889 4.209778l-0.682667 0.341333c2.275556 5.688889 3.413333-4.551111 5.688889 1.137778 2.275556-2.275556-2.275556-5.688889-1.137778-7.964445 75.093333-15.928889 145.635556-22.755556 225.28-5.688888zM149.031822 170.666667c3.072 0.6144 3.822933 2.218667 4.039111 3.561244l0.011378 0.136533-0.637155 0.853334 0.785066 0.705422 0.034134 0.136533c0.045511 0.193422 0.147911 0.295822 0.318577 0.295823-2.275556 3.413333-3.413333 5.688889-4.551111 7.964444l-3.413333 5.688889v2.275555l-1.137778 2.275556c-0.853333 0.853333-1.069511 1.706667-1.592889 2.56l-0.682666 0.853333s-1.137778-2.275556 0-3.413333l-1.137778-1.137778c1.137778-2.275556 2.275556-2.275556 3.413333-2.275555h1.137778c0-1.137778-1.137778-1.137778-2.275556-2.275556-2.275556-1.137778-1.137778 2.275556-5.688889 3.413333l-6.826666-4.551111c2.275556-3.413333 4.551111-6.826667 5.688889-10.24l1.137777-2.275555 3.413334 2.275555c2.275556 1.137778 4.551111-5.688889 7.964444-6.826666z m-21.617778 23.893333c0 1.137778 1.137778 1.137778 1.137778 2.275556v1.137777c-1.137778-1.137778-1.137778-2.275556-1.137778-3.413333zM819.182933 178.631111c4.050489 3.037867 6.291911 3.367822 9.944178 2.616889l1.103645-0.273067-0.489245-0.045511c-3.3792-0.739556-5.745778-5.188267-10.558578-2.298311z m12.515556 2.275556H830.560711l-0.329955 0.068266 0.455111 0.056889 1.012622-0.125155z m-696.32-7.964445c0.853333 0.432356 1.388089 0.534756 1.718044 0.443734l0.273067-0.170667L136.516267 174.08l-1.137778-1.137778z m1.991111 0.273067l0.159289-0.250311c0.125156-0.3072 0.125156-0.739556 0.125155-1.160534l0.386845-0.398222 0.750933-3.015111c1.137778-3.413333 3.413333-7.964444 6.826667-12.515555 4.551111 3.413333 3.413333 5.688889 4.551111 5.688888 2.275556 1.137778 1.137778-2.275556 5.688889-3.413333 6.826667 7.964444 17.066667 3.413333 18.204444 13.653333 3.413333 0 6.826667 2.275556 10.24-1.137777 5.313422 1.058133 3.6864 4.096 1.592889 6.360177l-0.364089 0.364089 1.046756-1.035377c5.688889-5.688889 10.24 2.275556 20.48 4.551111-5.688889 3.413333 3.413333 5.688889-3.413333 9.102222l4.551111 3.413333 3.413333-4.551111c3.185778-4.243911-3.538489-4.528356-3.527111-4.551111h0.113778c5.688889-3.413333 18.204444-2.275556 18.204444 5.688889 2.275556 1.137778 1.137778-2.275556 5.688889-3.413333 2.275556 1.137778 1.137778 3.413333 3.413333 5.688888 18.204444 1.137778 40.96 18.204444 59.164445 21.617778l-9.102222-1.137778c-3.106133-2.070756-6.200889 0.568889-7.600356 1.911467l-0.364089 0.364089 0.568889 0.273067-1.706667 0.864711h-1.137777c-1.137778 1.137778-2.275556 1.137778-3.413334 1.137778l-1.137778 1.137777h1.137778l2.275556 1.137778h5.688889l1.137777-1.137778c-0.978489-0.978489-0.273067-1.115022 0.659912-1.854577l0.420977-0.386845 0.284445 0.034133c0.682667 0.113778 1.365333 0.386844 2.048 1.069512v1.137777l2.275555-3.413333 5.597867 2.230044c-0.443733 0.159289-0.477867 1.2288 9.193244 6.872178-5.688889 4.551111 1.137778 7.964444 2.275556 9.102222 3.413333-4.551111-3.413333-5.688889 2.275556-6.826666 21.617778 12.515556 46.648889 12.515556 65.991111 28.444444 2.275556 1.137778 1.137778-2.275556 5.688889-3.413333 18.204444 5.688889 36.408889 14.791111 54.613333 20.48 21.617778 12.515556 45.511111 18.204444 65.991111 27.306667 52.337778 22.755556 105.813333 42.097778 154.737778 60.302222 4.551111 3.413333 7.964444 4.551111 12.515555 5.688889l6.826667 2.275555v1.137778c0 2.275556 0 3.413333 2.275556 4.551111l-5.688889 7.964445c3.413333 5.688889 3.413333-4.551111 5.688889 1.137777-1.137778 5.688889-4.551111-3.413333-5.688889 3.413334-94.435556-37.546667-188.871111-75.093333-281.031111-109.226667-10.24-7.964444-19.342222-6.826667-28.444445-12.515556-2.275556-1.137778 0-3.413333 1.137778-5.688888l-6.826667-4.551112c-5.688889 3.413333 3.413333 5.688889-2.275555 6.826667-4.551111-5.688889-17.066667-3.413333-15.928889-11.377778-10.24 4.551111-26.168889-3.413333-29.582222-14.791111-3.413333 4.551111 3.413333 5.688889-2.275556 6.826667-6.826667-2.275556 2.275556-6.826667-4.551111-10.24-1.137778 2.275556 0 3.413333-1.137778 5.688889l-3.413333-2.275556c-2.275556 0-4.551111-1.137778-6.826667-3.413333h1.137778c0 1.137778 1.137778 1.137778 2.275555 2.275555l2.275556-3.413333h-2.275556l1.137778-1.137778c-3.413333-2.275556-5.688889-3.413333-9.102222-4.551111l-1.137778 1.137778-2.275555-1.137778c-1.137778 0-3.413333-1.137778-4.551111-1.137778l-1.137778-1.137777c-13.653333-1.137778-21.617778 3.413333-26.168889-6.826667-4.551111-3.413333 0 3.413333-3.413333 4.551111-6.826667-2.275556-15.928889-9.102222-21.617778-9.102222l1.137778-2.275556c2.275556-2.275556 2.275556-2.275556 4.551111-2.275555-3.413333-5.688889-2.275556-13.653333-7.964445-14.791111-1.137778 5.688889 1.137778 7.964444 6.826667 12.515555-5.688889 3.413333-7.964444 6.826667-13.653333 5.688889-4.551111-3.413333 1.137778-5.688889-1.137778-7.964444-3.413333 0-5.688889 3.413333-9.102222 2.275555-7.964444-5.688889-15.928889-9.102222-23.893334-10.24 1.137778-2.275556 5.688889-4.551111 2.275556-6.826666-2.275556-1.137778-3.413333 4.551111-5.688889 4.551111-3.413333 4.551111 0-3.413333 1.137778-5.688889H170.6496l-2.275556 3.413333-3.413333-3.413333c-1.137778-1.137778-1.137778-1.137778-1.137778-2.275556-2.275556 0-4.551111-1.137778-7.964444-3.413333l4.551111-5.688889c-4.266667-3.197156-2.537244 5.597867-6.985956 2.025244l-0.193422-0.182044-0.034133-0.193422-0.056889-0.944356-0.056889-0.420978L155.858489 170.666667c-4.551111-3.413333-3.413333-5.688889-6.826667-7.964445-4.551111 1.137778-6.826667 3.413333-9.102222 6.826667l-2.2528 3.367822L138.791822 170.666667l-0.750933 0.739555-0.386845 1.536-0.284444 0.273067z m330.945422-7.3728l-0.705422 1.410844 0.318578-0.045511 0.8192-1.092266-0.432356-0.273067zM575.698489 136.533333c-3.413333 2.275556-5.688889 3.413333-7.964445 4.551111l3.413334-3.413333h1.137778c0-0.978489 0.830578-1.115022 2.503111-1.137778h0.910222z m50.062222-15.928889c-4.551111 6.826667-11.377778 5.688889-14.791111 15.928889-7.964444-2.275556-14.791111 2.275556-25.031111-2.275555l-2.275556-1.137778h1.137778c5.688889-2.275556 10.24-5.688889 12.515556-12.515556l1.137777 1.137778c1.137778 1.137778 3.413333 2.275556 4.551112 0l4.551111 3.413334c2.275556 1.137778 3.413333-4.551111 3.413333-4.551112 5.688889 1.137778-3.413333 4.551111 3.413333 5.688889 5.688889-3.413333-4.551111-3.413333 1.137778-5.688889 4.551111 3.413333 5.688889-3.413333 10.24 0z m-42.097778 12.515556c-1.137778 2.275556-4.551111 2.275556-6.826666 3.413333l6.826666-3.413333z m-13.653333 1.706667l-1.137778 0.568889 0.682667-0.182045c0.170667-0.1024 0.3072-0.238933 0.455111-0.386844z m1.137778-0.568889c-0.568889 0-0.853333 0.284444-1.137778 0.568889l1.137778-0.568889z m5.688889-2.275556c-1.137778 2.275556-2.275556 2.275556-3.413334 2.275556h-1.137777l1.137777-2.275556 2.275556-1.137778c1.137778 0 2.275556 0 1.137778 1.137778zM378.862933 78.506667l-4.551111 6.826666c4.551111 3.413333 7.964444 3.413333 10.24 0-4.551111-3.413333-4.551111-5.688889-5.688889-6.826666z m14.791111 3.413333v1.137778l-0.568888-0.568889 0.568888-0.568889z m1.137778-1.137778l-0.352711 0.694045-0.785067 0.443733 1.137778-1.137778z m7.327289-4.164266l-0.273067 0.273066 0.022756 0.352711c0 0.477867-0.079644 0.910222-0.250311 1.262934 0 0-1.137778 0-1.137778-1.137778h-1.137778v1.137778c0.910222 0.910222 1.092267 1.092267 1.706667 1.137777h2.844444v-3.413333c-0.705422-0.341333-1.297067-0.056889-1.774933 0.386845z m-0.375467-0.785067L400.480711 76.231111c0 2.798933 0.432356 1.718044 1.297067 0.750933l0.068266-0.091022-0.011377-0.398222-0.091023-0.659911zM403.894044 70.542222c-3.151644 0-2.480356 2.730667-2.161777 5.154134l0.011377 0.136533c6.018844-2.025244 1.080889-3.151644 2.1504-5.290667z m17.066667-11.377778c2.924089 0 4.175644 0 5.199645-0.7168L426.6496 58.026667c-3.413333-2.275556-3.413333 0-5.688889 1.137777z m9.102222-5.688888c-0.944356 1.900089-1.900089 3.003733-2.184533 3.982222l-0.091022 0.568889 1.137778 1.137777c0-1.137778 1.137778-3.413333 1.137777-4.551111v-1.137777z" fill="#1677FF" opacity=".35" p-id="1035"></path></svg>